<?xml version="1.0" encoding="utf-8" standalone="no"?>
<!DOCTYPE svg PUBLIC "-//W3C//DTD SVG 1.1//EN"
  "http://www.w3.org/Graphics/SVG/1.1/DTD/svg11.dtd">
<!-- Created with matplotlib (https://matplotlib.org/) -->
<svg height="574.678125pt" version="1.1" viewBox="0 0 728.535937 574.678125" width="728.535937pt" xmlns="http://www.w3.org/2000/svg" xmlns:xlink="http://www.w3.org/1999/xlink">
 <metadata>
  <rdf:RDF xmlns:cc="http://creativecommons.org/ns#" xmlns:dc="http://purl.org/dc/elements/1.1/" xmlns:rdf="http://www.w3.org/1999/02/22-rdf-syntax-ns#">
   <cc:Work>
    <dc:type rdf:resource="http://purl.org/dc/dcmitype/StillImage"/>
    <dc:date>2021-04-21T15:04:40.105725</dc:date>
    <dc:format>image/svg+xml</dc:format>
    <dc:creator>
     <cc:Agent>
      <dc:title>Matplotlib v3.3.4, https://matplotlib.org/</dc:title>
     </cc:Agent>
    </dc:creator>
   </cc:Work>
  </rdf:RDF>
 </metadata>
 <defs>
  <style type="text/css">*{stroke-linecap:butt;stroke-linejoin:round;}</style>
 </defs>
 <g id="figure_1">
  <g id="patch_1">
   <path d="M 0 574.678125 
L 728.535937 574.678125 
L 728.535937 0 
L 0 0 
z
" style="fill:none;"/>
  </g>
  <g id="axes_1">
   <g id="patch_2">
    <path d="M 40.603125 550.8 
L 710.203125 550.8 
L 710.203125 7.2 
L 40.603125 7.2 
z
" style="fill:#ffffff;"/>
   </g>
   <g id="patch_3">
    <path clip-path="url(#p1f8669c958)" d="M 55.821016 550.8 
L 59.453509 550.8 
L 59.453509 535.516921 
L 55.821016 535.516921 
z
" style="fill:#1f77b4;opacity:0.5;"/>
   </g>
   <g id="patch_4">
    <path clip-path="url(#p1f8669c958)" d="M 59.453509 550.8 
L 63.086002 550.8 
L 63.086002 531.696152 
L 59.453509 531.696152 
z
" style="fill:#1f77b4;opacity:0.5;"/>
   </g>
   <g id="patch_5">
    <path clip-path="url(#p1f8669c958)" d="M 63.086002 550.8 
L 66.718495 550.8 
L 66.718495 501.129995 
L 63.086002 501.129995 
z
" style="fill:#1f77b4;opacity:0.5;"/>
   </g>
   <g id="patch_6">
    <path clip-path="url(#p1f8669c958)" d="M 66.718495 550.8 
L 70.350987 550.8 
L 70.350987 478.205377 
L 66.718495 478.205377 
z
" style="fill:#1f77b4;opacity:0.5;"/>
   </g>
   <g id="patch_7">
    <path clip-path="url(#p1f8669c958)" d="M 70.350987 550.8 
L 73.98348 550.8 
L 73.98348 461.011914 
L 70.350987 461.011914 
z
" style="fill:#1f77b4;opacity:0.5;"/>
   </g>
   <g id="patch_8">
    <path clip-path="url(#p1f8669c958)" d="M 73.98348 550.8 
L 77.615973 550.8 
L 77.615973 438.087296 
L 73.98348 438.087296 
z
" style="fill:#1f77b4;opacity:0.5;"/>
   </g>
   <g id="patch_9">
    <path clip-path="url(#p1f8669c958)" d="M 77.615973 550.8 
L 81.248466 550.8 
L 81.248466 439.997681 
L 77.615973 439.997681 
z
" style="fill:#1f77b4;opacity:0.5;"/>
   </g>
   <g id="patch_10">
    <path clip-path="url(#p1f8669c958)" d="M 81.248466 550.8 
L 84.880959 550.8 
L 84.880959 434.266526 
L 81.248466 434.266526 
z
" style="fill:#1f77b4;opacity:0.5;"/>
   </g>
   <g id="patch_11">
    <path clip-path="url(#p1f8669c958)" d="M 84.880959 550.8 
L 88.513452 550.8 
L 88.513452 432.356141 
L 84.880959 432.356141 
z
" style="fill:#1f77b4;opacity:0.5;"/>
   </g>
   <g id="patch_12">
    <path clip-path="url(#p1f8669c958)" d="M 88.513452 550.8 
L 92.145945 550.8 
L 92.145945 415.162678 
L 88.513452 415.162678 
z
" style="fill:#1f77b4;opacity:0.5;"/>
   </g>
   <g id="patch_13">
    <path clip-path="url(#p1f8669c958)" d="M 92.145945 550.8 
L 95.778437 550.8 
L 95.778437 428.535372 
L 92.145945 428.535372 
z
" style="fill:#1f77b4;opacity:0.5;"/>
   </g>
   <g id="patch_14">
    <path clip-path="url(#p1f8669c958)" d="M 95.778437 550.8 
L 99.41093 550.8 
L 99.41093 384.596521 
L 95.778437 384.596521 
z
" style="fill:#1f77b4;opacity:0.5;"/>
   </g>
   <g id="patch_15">
    <path clip-path="url(#p1f8669c958)" d="M 99.41093 550.8 
L 103.043423 550.8 
L 103.043423 350.209594 
L 99.41093 350.209594 
z
" style="fill:#1f77b4;opacity:0.5;"/>
   </g>
   <g id="patch_16">
    <path clip-path="url(#p1f8669c958)" d="M 103.043423 550.8 
L 106.675916 550.8 
L 106.675916 346.388824 
L 103.043423 346.388824 
z
" style="fill:#1f77b4;opacity:0.5;"/>
   </g>
   <g id="patch_17">
    <path clip-path="url(#p1f8669c958)" d="M 106.675916 550.8 
L 110.308409 550.8 
L 110.308409 336.8369 
L 106.675916 336.8369 
z
" style="fill:#1f77b4;opacity:0.5;"/>
   </g>
   <g id="patch_18">
    <path clip-path="url(#p1f8669c958)" d="M 110.308409 550.8 
L 113.940902 550.8 
L 113.940902 323.464207 
L 110.308409 323.464207 
z
" style="fill:#1f77b4;opacity:0.5;"/>
   </g>
   <g id="patch_19">
    <path clip-path="url(#p1f8669c958)" d="M 113.940902 550.8 
L 117.573394 550.8 
L 117.573394 359.761518 
L 113.940902 359.761518 
z
" style="fill:#1f77b4;opacity:0.5;"/>
   </g>
   <g id="patch_20">
    <path clip-path="url(#p1f8669c958)" d="M 117.573394 550.8 
L 121.205887 550.8 
L 121.205887 308.181128 
L 117.573394 308.181128 
z
" style="fill:#1f77b4;opacity:0.5;"/>
   </g>
   <g id="patch_21">
    <path clip-path="url(#p1f8669c958)" d="M 121.205887 550.8 
L 124.83838 550.8 
L 124.83838 327.284976 
L 121.205887 327.284976 
z
" style="fill:#1f77b4;opacity:0.5;"/>
   </g>
   <g id="patch_22">
    <path clip-path="url(#p1f8669c958)" d="M 124.83838 550.8 
L 128.470873 550.8 
L 128.470873 271.883817 
L 124.83838 271.883817 
z
" style="fill:#1f77b4;opacity:0.5;"/>
   </g>
   <g id="patch_23">
    <path clip-path="url(#p1f8669c958)" d="M 128.470873 550.8 
L 132.103366 550.8 
L 132.103366 233.67612 
L 128.470873 233.67612 
z
" style="fill:#1f77b4;opacity:0.5;"/>
   </g>
   <g id="patch_24">
    <path clip-path="url(#p1f8669c958)" d="M 132.103366 550.8 
L 135.735859 550.8 
L 135.735859 285.25651 
L 132.103366 285.25651 
z
" style="fill:#1f77b4;opacity:0.5;"/>
   </g>
   <g id="patch_25">
    <path clip-path="url(#p1f8669c958)" d="M 135.735859 550.8 
L 139.368352 550.8 
L 139.368352 182.09573 
L 135.735859 182.09573 
z
" style="fill:#1f77b4;opacity:0.5;"/>
   </g>
   <g id="patch_26">
    <path clip-path="url(#p1f8669c958)" d="M 139.368352 550.8 
L 143.000844 550.8 
L 143.000844 185.9165 
L 139.368352 185.9165 
z
" style="fill:#1f77b4;opacity:0.5;"/>
   </g>
   <g id="patch_27">
    <path clip-path="url(#p1f8669c958)" d="M 143.000844 550.8 
L 146.633337 550.8 
L 146.633337 224.124196 
L 143.000844 224.124196 
z
" style="fill:#1f77b4;opacity:0.5;"/>
   </g>
   <g id="patch_28">
    <path clip-path="url(#p1f8669c958)" d="M 146.633337 550.8 
L 150.26583 550.8 
L 150.26583 226.034581 
L 146.633337 226.034581 
z
" style="fill:#1f77b4;opacity:0.5;"/>
   </g>
   <g id="patch_29">
    <path clip-path="url(#p1f8669c958)" d="M 150.26583 550.8 
L 153.898323 550.8 
L 153.898323 170.633421 
L 150.26583 170.633421 
z
" style="fill:#1f77b4;opacity:0.5;"/>
   </g>
   <g id="patch_30">
    <path clip-path="url(#p1f8669c958)" d="M 153.898323 550.8 
L 157.530816 550.8 
L 157.530816 201.199578 
L 153.898323 201.199578 
z
" style="fill:#1f77b4;opacity:0.5;"/>
   </g>
   <g id="patch_31">
    <path clip-path="url(#p1f8669c958)" d="M 157.530816 550.8 
L 161.163309 550.8 
L 161.163309 149.619188 
L 157.530816 149.619188 
z
" style="fill:#1f77b4;opacity:0.5;"/>
   </g>
   <g id="patch_32">
    <path clip-path="url(#p1f8669c958)" d="M 161.163309 550.8 
L 164.795801 550.8 
L 164.795801 124.784186 
L 161.163309 124.784186 
z
" style="fill:#1f77b4;opacity:0.5;"/>
   </g>
   <g id="patch_33">
    <path clip-path="url(#p1f8669c958)" d="M 164.795801 550.8 
L 168.428294 550.8 
L 168.428294 151.529573 
L 164.795801 151.529573 
z
" style="fill:#1f77b4;opacity:0.5;"/>
   </g>
   <g id="patch_34">
    <path clip-path="url(#p1f8669c958)" d="M 168.428294 550.8 
L 172.060787 550.8 
L 172.060787 136.246494 
L 168.428294 136.246494 
z
" style="fill:#1f77b4;opacity:0.5;"/>
   </g>
   <g id="patch_35">
    <path clip-path="url(#p1f8669c958)" d="M 172.060787 550.8 
L 175.69328 550.8 
L 175.69328 132.425725 
L 172.060787 132.425725 
z
" style="fill:#1f77b4;opacity:0.5;"/>
   </g>
   <g id="patch_36">
    <path clip-path="url(#p1f8669c958)" d="M 175.69328 550.8 
L 179.325773 550.8 
L 179.325773 109.501107 
L 175.69328 109.501107 
z
" style="fill:#1f77b4;opacity:0.5;"/>
   </g>
   <g id="patch_37">
    <path clip-path="url(#p1f8669c958)" d="M 179.325773 550.8 
L 182.958266 550.8 
L 182.958266 96.128413 
L 179.325773 96.128413 
z
" style="fill:#1f77b4;opacity:0.5;"/>
   </g>
   <g id="patch_38">
    <path clip-path="url(#p1f8669c958)" d="M 182.958266 550.8 
L 186.590759 550.8 
L 186.590759 33.085714 
L 182.958266 33.085714 
z
" style="fill:#1f77b4;opacity:0.5;"/>
   </g>
   <g id="patch_39">
    <path clip-path="url(#p1f8669c958)" d="M 186.590759 550.8 
L 190.223251 550.8 
L 190.223251 34.996099 
L 186.590759 34.996099 
z
" style="fill:#1f77b4;opacity:0.5;"/>
   </g>
   <g id="patch_40">
    <path clip-path="url(#p1f8669c958)" d="M 190.223251 550.8 
L 193.855744 550.8 
L 193.855744 73.203795 
L 190.223251 73.203795 
z
" style="fill:#1f77b4;opacity:0.5;"/>
   </g>
   <g id="patch_41">
    <path clip-path="url(#p1f8669c958)" d="M 193.855744 550.8 
L 197.488237 550.8 
L 197.488237 75.11418 
L 193.855744 75.11418 
z
" style="fill:#1f77b4;opacity:0.5;"/>
   </g>
   <g id="patch_42">
    <path clip-path="url(#p1f8669c958)" d="M 197.488237 550.8 
L 201.12073 550.8 
L 201.12073 80.845335 
L 197.488237 80.845335 
z
" style="fill:#1f77b4;opacity:0.5;"/>
   </g>
   <g id="patch_43">
    <path clip-path="url(#p1f8669c958)" d="M 201.12073 550.8 
L 204.753223 550.8 
L 204.753223 67.472641 
L 201.12073 67.472641 
z
" style="fill:#1f77b4;opacity:0.5;"/>
   </g>
   <g id="patch_44">
    <path clip-path="url(#p1f8669c958)" d="M 204.753223 550.8 
L 208.385716 550.8 
L 208.385716 134.33611 
L 204.753223 134.33611 
z
" style="fill:#1f77b4;opacity:0.5;"/>
   </g>
   <g id="patch_45">
    <path clip-path="url(#p1f8669c958)" d="M 208.385716 550.8 
L 212.018208 550.8 
L 212.018208 166.812652 
L 208.385716 166.812652 
z
" style="fill:#1f77b4;opacity:0.5;"/>
   </g>
   <g id="patch_46">
    <path clip-path="url(#p1f8669c958)" d="M 212.018208 550.8 
L 215.650701 550.8 
L 215.650701 174.454191 
L 212.018208 174.454191 
z
" style="fill:#1f77b4;opacity:0.5;"/>
   </g>
   <g id="patch_47">
    <path clip-path="url(#p1f8669c958)" d="M 215.650701 550.8 
L 219.283194 550.8 
L 219.283194 176.364576 
L 215.650701 176.364576 
z
" style="fill:#1f77b4;opacity:0.5;"/>
   </g>
   <g id="patch_48">
    <path clip-path="url(#p1f8669c958)" d="M 219.283194 550.8 
L 222.915687 550.8 
L 222.915687 90.397259 
L 219.283194 90.397259 
z
" style="fill:#1f77b4;opacity:0.5;"/>
   </g>
   <g id="patch_49">
    <path clip-path="url(#p1f8669c958)" d="M 222.915687 550.8 
L 226.54818 550.8 
L 226.54818 176.364576 
L 222.915687 176.364576 
z
" style="fill:#1f77b4;opacity:0.5;"/>
   </g>
   <g id="patch_50">
    <path clip-path="url(#p1f8669c958)" d="M 226.54818 550.8 
L 230.180673 550.8 
L 230.180673 187.826885 
L 226.54818 187.826885 
z
" style="fill:#1f77b4;opacity:0.5;"/>
   </g>
   <g id="patch_51">
    <path clip-path="url(#p1f8669c958)" d="M 230.180673 550.8 
L 233.813165 550.8 
L 233.813165 214.572272 
L 230.180673 214.572272 
z
" style="fill:#1f77b4;opacity:0.5;"/>
   </g>
   <g id="patch_52">
    <path clip-path="url(#p1f8669c958)" d="M 233.813165 550.8 
L 237.445658 550.8 
L 237.445658 197.378809 
L 233.813165 197.378809 
z
" style="fill:#1f77b4;opacity:0.5;"/>
   </g>
   <g id="patch_53">
    <path clip-path="url(#p1f8669c958)" d="M 237.445658 550.8 
L 241.078151 550.8 
L 241.078151 191.647654 
L 237.445658 191.647654 
z
" style="fill:#1f77b4;opacity:0.5;"/>
   </g>
   <g id="patch_54">
    <path clip-path="url(#p1f8669c958)" d="M 241.078151 550.8 
L 244.710644 550.8 
L 244.710644 170.633421 
L 241.078151 170.633421 
z
" style="fill:#1f77b4;opacity:0.5;"/>
   </g>
   <g id="patch_55">
    <path clip-path="url(#p1f8669c958)" d="M 244.710644 550.8 
L 248.343137 550.8 
L 248.343137 216.482657 
L 244.710644 216.482657 
z
" style="fill:#1f77b4;opacity:0.5;"/>
   </g>
   <g id="patch_56">
    <path clip-path="url(#p1f8669c958)" d="M 248.343137 550.8 
L 251.97563 550.8 
L 251.97563 218.393042 
L 248.343137 218.393042 
z
" style="fill:#1f77b4;opacity:0.5;"/>
   </g>
   <g id="patch_57">
    <path clip-path="url(#p1f8669c958)" d="M 251.97563 550.8 
L 255.608123 550.8 
L 255.608123 222.213811 
L 251.97563 222.213811 
z
" style="fill:#1f77b4;opacity:0.5;"/>
   </g>
   <g id="patch_58">
    <path clip-path="url(#p1f8669c958)" d="M 255.608123 550.8 
L 259.240615 550.8 
L 259.240615 214.572272 
L 255.608123 214.572272 
z
" style="fill:#1f77b4;opacity:0.5;"/>
   </g>
   <g id="patch_59">
    <path clip-path="url(#p1f8669c958)" d="M 259.240615 550.8 
L 262.873108 550.8 
L 262.873108 298.629204 
L 259.240615 298.629204 
z
" style="fill:#1f77b4;opacity:0.5;"/>
   </g>
   <g id="patch_60">
    <path clip-path="url(#p1f8669c958)" d="M 262.873108 550.8 
L 266.505601 550.8 
L 266.505601 235.586505 
L 262.873108 235.586505 
z
" style="fill:#1f77b4;opacity:0.5;"/>
   </g>
   <g id="patch_61">
    <path clip-path="url(#p1f8669c958)" d="M 266.505601 550.8 
L 270.138094 550.8 
L 270.138094 317.733052 
L 266.505601 317.733052 
z
" style="fill:#1f77b4;opacity:0.5;"/>
   </g>
   <g id="patch_62">
    <path clip-path="url(#p1f8669c958)" d="M 270.138094 550.8 
L 273.770587 550.8 
L 273.770587 241.317659 
L 270.138094 241.317659 
z
" style="fill:#1f77b4;opacity:0.5;"/>
   </g>
   <g id="patch_63">
    <path clip-path="url(#p1f8669c958)" d="M 273.770587 550.8 
L 277.40308 550.8 
L 277.40308 312.001898 
L 273.770587 312.001898 
z
" style="fill:#1f77b4;opacity:0.5;"/>
   </g>
   <g id="patch_64">
    <path clip-path="url(#p1f8669c958)" d="M 277.40308 550.8 
L 281.035572 550.8 
L 281.035572 304.360358 
L 277.40308 304.360358 
z
" style="fill:#1f77b4;opacity:0.5;"/>
   </g>
   <g id="patch_65">
    <path clip-path="url(#p1f8669c958)" d="M 281.035572 550.8 
L 284.668065 550.8 
L 284.668065 317.733052 
L 281.035572 317.733052 
z
" style="fill:#1f77b4;opacity:0.5;"/>
   </g>
   <g id="patch_66">
    <path clip-path="url(#p1f8669c958)" d="M 284.668065 550.8 
L 288.300558 550.8 
L 288.300558 329.195361 
L 284.668065 329.195361 
z
" style="fill:#1f77b4;opacity:0.5;"/>
   </g>
   <g id="patch_67">
    <path clip-path="url(#p1f8669c958)" d="M 288.300558 550.8 
L 291.933051 550.8 
L 291.933051 354.030364 
L 288.300558 354.030364 
z
" style="fill:#1f77b4;opacity:0.5;"/>
   </g>
   <g id="patch_68">
    <path clip-path="url(#p1f8669c958)" d="M 291.933051 550.8 
L 295.565544 550.8 
L 295.565544 310.091513 
L 291.933051 310.091513 
z
" style="fill:#1f77b4;opacity:0.5;"/>
   </g>
   <g id="patch_69">
    <path clip-path="url(#p1f8669c958)" d="M 295.565544 550.8 
L 299.198037 550.8 
L 299.198037 334.926516 
L 295.565544 334.926516 
z
" style="fill:#1f77b4;opacity:0.5;"/>
   </g>
   <g id="patch_70">
    <path clip-path="url(#p1f8669c958)" d="M 299.198037 550.8 
L 302.83053 550.8 
L 302.83053 323.464207 
L 299.198037 323.464207 
z
" style="fill:#1f77b4;opacity:0.5;"/>
   </g>
   <g id="patch_71">
    <path clip-path="url(#p1f8669c958)" d="M 302.83053 550.8 
L 306.463022 550.8 
L 306.463022 380.775751 
L 302.83053 380.775751 
z
" style="fill:#1f77b4;opacity:0.5;"/>
   </g>
   <g id="patch_72">
    <path clip-path="url(#p1f8669c958)" d="M 306.463022 550.8 
L 310.095515 550.8 
L 310.095515 375.044597 
L 306.463022 375.044597 
z
" style="fill:#1f77b4;opacity:0.5;"/>
   </g>
   <g id="patch_73">
    <path clip-path="url(#p1f8669c958)" d="M 310.095515 550.8 
L 313.728008 550.8 
L 313.728008 397.969215 
L 310.095515 397.969215 
z
" style="fill:#1f77b4;opacity:0.5;"/>
   </g>
   <g id="patch_74">
    <path clip-path="url(#p1f8669c958)" d="M 313.728008 550.8 
L 317.360501 550.8 
L 317.360501 359.761518 
L 313.728008 359.761518 
z
" style="fill:#1f77b4;opacity:0.5;"/>
   </g>
   <g id="patch_75">
    <path clip-path="url(#p1f8669c958)" d="M 317.360501 550.8 
L 320.992994 550.8 
L 320.992994 403.700369 
L 317.360501 403.700369 
z
" style="fill:#1f77b4;opacity:0.5;"/>
   </g>
   <g id="patch_76">
    <path clip-path="url(#p1f8669c958)" d="M 320.992994 550.8 
L 324.625487 550.8 
L 324.625487 386.506906 
L 320.992994 386.506906 
z
" style="fill:#1f77b4;opacity:0.5;"/>
   </g>
   <g id="patch_77">
    <path clip-path="url(#p1f8669c958)" d="M 324.625487 550.8 
L 328.257979 550.8 
L 328.257979 394.148445 
L 324.625487 394.148445 
z
" style="fill:#1f77b4;opacity:0.5;"/>
   </g>
   <g id="patch_78">
    <path clip-path="url(#p1f8669c958)" d="M 328.257979 550.8 
L 331.890472 550.8 
L 331.890472 426.624987 
L 328.257979 426.624987 
z
" style="fill:#1f77b4;opacity:0.5;"/>
   </g>
   <g id="patch_79">
    <path clip-path="url(#p1f8669c958)" d="M 331.890472 550.8 
L 335.522965 550.8 
L 335.522965 428.535372 
L 331.890472 428.535372 
z
" style="fill:#1f77b4;opacity:0.5;"/>
   </g>
   <g id="patch_80">
    <path clip-path="url(#p1f8669c958)" d="M 335.522965 550.8 
L 339.155458 550.8 
L 339.155458 388.41729 
L 335.522965 388.41729 
z
" style="fill:#1f77b4;opacity:0.5;"/>
   </g>
   <g id="patch_81">
    <path clip-path="url(#p1f8669c958)" d="M 339.155458 550.8 
L 342.787951 550.8 
L 342.787951 436.176911 
L 339.155458 436.176911 
z
" style="fill:#1f77b4;opacity:0.5;"/>
   </g>
   <g id="patch_82">
    <path clip-path="url(#p1f8669c958)" d="M 342.787951 550.8 
L 346.420444 550.8 
L 346.420444 396.05883 
L 342.787951 396.05883 
z
" style="fill:#1f77b4;opacity:0.5;"/>
   </g>
   <g id="patch_83">
    <path clip-path="url(#p1f8669c958)" d="M 346.420444 550.8 
L 350.052937 550.8 
L 350.052937 418.983448 
L 346.420444 418.983448 
z
" style="fill:#1f77b4;opacity:0.5;"/>
   </g>
   <g id="patch_84">
    <path clip-path="url(#p1f8669c958)" d="M 350.052937 550.8 
L 353.685429 550.8 
L 353.685429 426.624987 
L 350.052937 426.624987 
z
" style="fill:#1f77b4;opacity:0.5;"/>
   </g>
   <g id="patch_85">
    <path clip-path="url(#p1f8669c958)" d="M 353.685429 550.8 
L 357.317922 550.8 
L 357.317922 417.073063 
L 353.685429 417.073063 
z
" style="fill:#1f77b4;opacity:0.5;"/>
   </g>
   <g id="patch_86">
    <path clip-path="url(#p1f8669c958)" d="M 357.317922 550.8 
L 360.950415 550.8 
L 360.950415 424.714602 
L 357.317922 424.714602 
z
" style="fill:#1f77b4;opacity:0.5;"/>
   </g>
   <g id="patch_87">
    <path clip-path="url(#p1f8669c958)" d="M 360.950415 550.8 
L 364.582908 550.8 
L 364.582908 428.535372 
L 360.950415 428.535372 
z
" style="fill:#1f77b4;opacity:0.5;"/>
   </g>
   <g id="patch_88">
    <path clip-path="url(#p1f8669c958)" d="M 364.582908 550.8 
L 368.215401 550.8 
L 368.215401 439.997681 
L 364.582908 439.997681 
z
" style="fill:#1f77b4;opacity:0.5;"/>
   </g>
   <g id="patch_89">
    <path clip-path="url(#p1f8669c958)" d="M 368.215401 550.8 
L 371.847894 550.8 
L 371.847894 453.370374 
L 368.215401 453.370374 
z
" style="fill:#1f77b4;opacity:0.5;"/>
   </g>
   <g id="patch_90">
    <path clip-path="url(#p1f8669c958)" d="M 371.847894 550.8 
L 375.480386 550.8 
L 375.480386 459.101529 
L 371.847894 459.101529 
z
" style="fill:#1f77b4;opacity:0.5;"/>
   </g>
   <g id="patch_91">
    <path clip-path="url(#p1f8669c958)" d="M 375.480386 550.8 
L 379.112879 550.8 
L 379.112879 470.563838 
L 375.480386 470.563838 
z
" style="fill:#1f77b4;opacity:0.5;"/>
   </g>
   <g id="patch_92">
    <path clip-path="url(#p1f8669c958)" d="M 379.112879 550.8 
L 382.745372 550.8 
L 382.745372 443.81845 
L 379.112879 443.81845 
z
" style="fill:#1f77b4;opacity:0.5;"/>
   </g>
   <g id="patch_93">
    <path clip-path="url(#p1f8669c958)" d="M 382.745372 550.8 
L 386.377865 550.8 
L 386.377865 468.653453 
L 382.745372 468.653453 
z
" style="fill:#1f77b4;opacity:0.5;"/>
   </g>
   <g id="patch_94">
    <path clip-path="url(#p1f8669c958)" d="M 386.377865 550.8 
L 390.010358 550.8 
L 390.010358 453.370374 
L 386.377865 453.370374 
z
" style="fill:#1f77b4;opacity:0.5;"/>
   </g>
   <g id="patch_95">
    <path clip-path="url(#p1f8669c958)" d="M 390.010358 550.8 
L 393.642851 550.8 
L 393.642851 474.384607 
L 390.010358 474.384607 
z
" style="fill:#1f77b4;opacity:0.5;"/>
   </g>
   <g id="patch_96">
    <path clip-path="url(#p1f8669c958)" d="M 393.642851 550.8 
L 397.275344 550.8 
L 397.275344 472.474222 
L 393.642851 472.474222 
z
" style="fill:#1f77b4;opacity:0.5;"/>
   </g>
   <g id="patch_97">
    <path clip-path="url(#p1f8669c958)" d="M 397.275344 550.8 
L 400.907836 550.8 
L 400.907836 480.115762 
L 397.275344 480.115762 
z
" style="fill:#1f77b4;opacity:0.5;"/>
   </g>
   <g id="patch_98">
    <path clip-path="url(#p1f8669c958)" d="M 400.907836 550.8 
L 404.540329 550.8 
L 404.540329 480.115762 
L 400.907836 480.115762 
z
" style="fill:#1f77b4;opacity:0.5;"/>
   </g>
   <g id="patch_99">
    <path clip-path="url(#p1f8669c958)" d="M 404.540329 550.8 
L 408.172822 550.8 
L 408.172822 468.653453 
L 404.540329 468.653453 
z
" style="fill:#1f77b4;opacity:0.5;"/>
   </g>
   <g id="patch_100">
    <path clip-path="url(#p1f8669c958)" d="M 408.172822 550.8 
L 411.805315 550.8 
L 411.805315 480.115762 
L 408.172822 480.115762 
z
" style="fill:#1f77b4;opacity:0.5;"/>
   </g>
   <g id="patch_101">
    <path clip-path="url(#p1f8669c958)" d="M 411.805315 550.8 
L 415.437808 550.8 
L 415.437808 504.950764 
L 411.805315 504.950764 
z
" style="fill:#1f77b4;opacity:0.5;"/>
   </g>
   <g id="patch_102">
    <path clip-path="url(#p1f8669c958)" d="M 415.437808 550.8 
L 419.070301 550.8 
L 419.070301 508.771534 
L 415.437808 508.771534 
z
" style="fill:#1f77b4;opacity:0.5;"/>
   </g>
   <g id="patch_103">
    <path clip-path="url(#p1f8669c958)" d="M 419.070301 550.8 
L 422.702793 550.8 
L 422.702793 483.936531 
L 419.070301 483.936531 
z
" style="fill:#1f77b4;opacity:0.5;"/>
   </g>
   <g id="patch_104">
    <path clip-path="url(#p1f8669c958)" d="M 422.702793 550.8 
L 426.335286 550.8 
L 426.335286 512.592304 
L 422.702793 512.592304 
z
" style="fill:#1f77b4;opacity:0.5;"/>
   </g>
   <g id="patch_105">
    <path clip-path="url(#p1f8669c958)" d="M 426.335286 550.8 
L 429.967779 550.8 
L 429.967779 489.667686 
L 426.335286 489.667686 
z
" style="fill:#1f77b4;opacity:0.5;"/>
   </g>
   <g id="patch_106">
    <path clip-path="url(#p1f8669c958)" d="M 429.967779 550.8 
L 433.600272 550.8 
L 433.600272 487.757301 
L 429.967779 487.757301 
z
" style="fill:#1f77b4;opacity:0.5;"/>
   </g>
   <g id="patch_107">
    <path clip-path="url(#p1f8669c958)" d="M 433.600272 550.8 
L 437.232765 550.8 
L 437.232765 495.39884 
L 433.600272 495.39884 
z
" style="fill:#1f77b4;opacity:0.5;"/>
   </g>
   <g id="patch_108">
    <path clip-path="url(#p1f8669c958)" d="M 437.232765 550.8 
L 440.865258 550.8 
L 440.865258 487.757301 
L 437.232765 487.757301 
z
" style="fill:#1f77b4;opacity:0.5;"/>
   </g>
   <g id="patch_109">
    <path clip-path="url(#p1f8669c958)" d="M 440.865258 550.8 
L 444.497751 550.8 
L 444.497751 504.950764 
L 440.865258 504.950764 
z
" style="fill:#1f77b4;opacity:0.5;"/>
   </g>
   <g id="patch_110">
    <path clip-path="url(#p1f8669c958)" d="M 444.497751 550.8 
L 448.130243 550.8 
L 448.130243 506.861149 
L 444.497751 506.861149 
z
" style="fill:#1f77b4;opacity:0.5;"/>
   </g>
   <g id="patch_111">
    <path clip-path="url(#p1f8669c958)" d="M 448.130243 550.8 
L 451.762736 550.8 
L 451.762736 514.502688 
L 448.130243 514.502688 
z
" style="fill:#1f77b4;opacity:0.5;"/>
   </g>
   <g id="patch_112">
    <path clip-path="url(#p1f8669c958)" d="M 451.762736 550.8 
L 455.395229 550.8 
L 455.395229 506.861149 
L 451.762736 506.861149 
z
" style="fill:#1f77b4;opacity:0.5;"/>
   </g>
   <g id="patch_113">
    <path clip-path="url(#p1f8669c958)" d="M 455.395229 550.8 
L 459.027722 550.8 
L 459.027722 506.861149 
L 455.395229 506.861149 
z
" style="fill:#1f77b4;opacity:0.5;"/>
   </g>
   <g id="patch_114">
    <path clip-path="url(#p1f8669c958)" d="M 459.027722 550.8 
L 462.660215 550.8 
L 462.660215 527.875382 
L 459.027722 527.875382 
z
" style="fill:#1f77b4;opacity:0.5;"/>
   </g>
   <g id="patch_115">
    <path clip-path="url(#p1f8669c958)" d="M 462.660215 550.8 
L 466.292708 550.8 
L 466.292708 512.592304 
L 462.660215 512.592304 
z
" style="fill:#1f77b4;opacity:0.5;"/>
   </g>
   <g id="patch_116">
    <path clip-path="url(#p1f8669c958)" d="M 466.292708 550.8 
L 469.9252 550.8 
L 469.9252 524.054613 
L 466.292708 524.054613 
z
" style="fill:#1f77b4;opacity:0.5;"/>
   </g>
   <g id="patch_117">
    <path clip-path="url(#p1f8669c958)" d="M 469.9252 550.8 
L 473.557693 550.8 
L 473.557693 537.427306 
L 469.9252 537.427306 
z
" style="fill:#1f77b4;opacity:0.5;"/>
   </g>
   <g id="patch_118">
    <path clip-path="url(#p1f8669c958)" d="M 473.557693 550.8 
L 477.190186 550.8 
L 477.190186 510.681919 
L 473.557693 510.681919 
z
" style="fill:#1f77b4;opacity:0.5;"/>
   </g>
   <g id="patch_119">
    <path clip-path="url(#p1f8669c958)" d="M 477.190186 550.8 
L 480.822679 550.8 
L 480.822679 527.875382 
L 477.190186 527.875382 
z
" style="fill:#1f77b4;opacity:0.5;"/>
   </g>
   <g id="patch_120">
    <path clip-path="url(#p1f8669c958)" d="M 480.822679 550.8 
L 484.455172 550.8 
L 484.455172 518.323458 
L 480.822679 518.323458 
z
" style="fill:#1f77b4;opacity:0.5;"/>
   </g>
   <g id="patch_121">
    <path clip-path="url(#p1f8669c958)" d="M 484.455172 550.8 
L 488.087665 550.8 
L 488.087665 518.323458 
L 484.455172 518.323458 
z
" style="fill:#1f77b4;opacity:0.5;"/>
   </g>
   <g id="patch_122">
    <path clip-path="url(#p1f8669c958)" d="M 488.087665 550.8 
L 491.720158 550.8 
L 491.720158 527.875382 
L 488.087665 527.875382 
z
" style="fill:#1f77b4;opacity:0.5;"/>
   </g>
   <g id="patch_123">
    <path clip-path="url(#p1f8669c958)" d="M 491.720158 550.8 
L 495.35265 550.8 
L 495.35265 514.502688 
L 491.720158 514.502688 
z
" style="fill:#1f77b4;opacity:0.5;"/>
   </g>
   <g id="patch_124">
    <path clip-path="url(#p1f8669c958)" d="M 495.35265 550.8 
L 498.985143 550.8 
L 498.985143 522.144228 
L 495.35265 522.144228 
z
" style="fill:#1f77b4;opacity:0.5;"/>
   </g>
   <g id="patch_125">
    <path clip-path="url(#p1f8669c958)" d="M 498.985143 550.8 
L 502.617636 550.8 
L 502.617636 520.233843 
L 498.985143 520.233843 
z
" style="fill:#1f77b4;opacity:0.5;"/>
   </g>
   <g id="patch_126">
    <path clip-path="url(#p1f8669c958)" d="M 502.617636 550.8 
L 506.250129 550.8 
L 506.250129 524.054613 
L 502.617636 524.054613 
z
" style="fill:#1f77b4;opacity:0.5;"/>
   </g>
   <g id="patch_127">
    <path clip-path="url(#p1f8669c958)" d="M 506.250129 550.8 
L 509.882622 550.8 
L 509.882622 514.502688 
L 506.250129 514.502688 
z
" style="fill:#1f77b4;opacity:0.5;"/>
   </g>
   <g id="patch_128">
    <path clip-path="url(#p1f8669c958)" d="M 509.882622 550.8 
L 513.515115 550.8 
L 513.515115 529.785767 
L 509.882622 529.785767 
z
" style="fill:#1f77b4;opacity:0.5;"/>
   </g>
   <g id="patch_129">
    <path clip-path="url(#p1f8669c958)" d="M 513.515115 550.8 
L 517.147607 550.8 
L 517.147607 541.248076 
L 513.515115 541.248076 
z
" style="fill:#1f77b4;opacity:0.5;"/>
   </g>
   <g id="patch_130">
    <path clip-path="url(#p1f8669c958)" d="M 517.147607 550.8 
L 520.7801 550.8 
L 520.7801 529.785767 
L 517.147607 529.785767 
z
" style="fill:#1f77b4;opacity:0.5;"/>
   </g>
   <g id="patch_131">
    <path clip-path="url(#p1f8669c958)" d="M 520.7801 550.8 
L 524.412593 550.8 
L 524.412593 529.785767 
L 520.7801 529.785767 
z
" style="fill:#1f77b4;opacity:0.5;"/>
   </g>
   <g id="patch_132">
    <path clip-path="url(#p1f8669c958)" d="M 524.412593 550.8 
L 528.045086 550.8 
L 528.045086 531.696152 
L 524.412593 531.696152 
z
" style="fill:#1f77b4;opacity:0.5;"/>
   </g>
   <g id="patch_133">
    <path clip-path="url(#p1f8669c958)" d="M 528.045086 550.8 
L 531.677579 550.8 
L 531.677579 545.068846 
L 528.045086 545.068846 
z
" style="fill:#1f77b4;opacity:0.5;"/>
   </g>
   <g id="patch_134">
    <path clip-path="url(#p1f8669c958)" d="M 531.677579 550.8 
L 535.310072 550.8 
L 535.310072 539.337691 
L 531.677579 539.337691 
z
" style="fill:#1f77b4;opacity:0.5;"/>
   </g>
   <g id="patch_135">
    <path clip-path="url(#p1f8669c958)" d="M 535.310072 550.8 
L 538.942565 550.8 
L 538.942565 535.516921 
L 535.310072 535.516921 
z
" style="fill:#1f77b4;opacity:0.5;"/>
   </g>
   <g id="patch_136">
    <path clip-path="url(#p1f8669c958)" d="M 538.942565 550.8 
L 542.575057 550.8 
L 542.575057 539.337691 
L 538.942565 539.337691 
z
" style="fill:#1f77b4;opacity:0.5;"/>
   </g>
   <g id="patch_137">
    <path clip-path="url(#p1f8669c958)" d="M 542.575057 550.8 
L 546.20755 550.8 
L 546.20755 529.785767 
L 542.575057 529.785767 
z
" style="fill:#1f77b4;opacity:0.5;"/>
   </g>
   <g id="patch_138">
    <path clip-path="url(#p1f8669c958)" d="M 546.20755 550.8 
L 549.840043 550.8 
L 549.840043 543.158461 
L 546.20755 543.158461 
z
" style="fill:#1f77b4;opacity:0.5;"/>
   </g>
   <g id="patch_139">
    <path clip-path="url(#p1f8669c958)" d="M 549.840043 550.8 
L 553.472536 550.8 
L 553.472536 541.248076 
L 549.840043 541.248076 
z
" style="fill:#1f77b4;opacity:0.5;"/>
   </g>
   <g id="patch_140">
    <path clip-path="url(#p1f8669c958)" d="M 553.472536 550.8 
L 557.105029 550.8 
L 557.105029 529.785767 
L 553.472536 529.785767 
z
" style="fill:#1f77b4;opacity:0.5;"/>
   </g>
   <g id="patch_141">
    <path clip-path="url(#p1f8669c958)" d="M 557.105029 550.8 
L 560.737522 550.8 
L 560.737522 541.248076 
L 557.105029 541.248076 
z
" style="fill:#1f77b4;opacity:0.5;"/>
   </g>
   <g id="patch_142">
    <path clip-path="url(#p1f8669c958)" d="M 560.737522 550.8 
L 564.370014 550.8 
L 564.370014 546.97923 
L 560.737522 546.97923 
z
" style="fill:#1f77b4;opacity:0.5;"/>
   </g>
   <g id="patch_143">
    <path clip-path="url(#p1f8669c958)" d="M 564.370014 550.8 
L 568.002507 550.8 
L 568.002507 535.516921 
L 564.370014 535.516921 
z
" style="fill:#1f77b4;opacity:0.5;"/>
   </g>
   <g id="patch_144">
    <path clip-path="url(#p1f8669c958)" d="M 568.002507 550.8 
L 571.635 550.8 
L 571.635 533.606537 
L 568.002507 533.606537 
z
" style="fill:#1f77b4;opacity:0.5;"/>
   </g>
   <g id="patch_145">
    <path clip-path="url(#p1f8669c958)" d="M 571.635 550.8 
L 575.267493 550.8 
L 575.267493 545.068846 
L 571.635 545.068846 
z
" style="fill:#1f77b4;opacity:0.5;"/>
   </g>
   <g id="patch_146">
    <path clip-path="url(#p1f8669c958)" d="M 575.267493 550.8 
L 578.899986 550.8 
L 578.899986 548.889615 
L 575.267493 548.889615 
z
" style="fill:#1f77b4;opacity:0.5;"/>
   </g>
   <g id="patch_147">
    <path clip-path="url(#p1f8669c958)" d="M 578.899986 550.8 
L 582.532479 550.8 
L 582.532479 537.427306 
L 578.899986 537.427306 
z
" style="fill:#1f77b4;opacity:0.5;"/>
   </g>
   <g id="patch_148">
    <path clip-path="url(#p1f8669c958)" d="M 582.532479 550.8 
L 586.164972 550.8 
L 586.164972 541.248076 
L 582.532479 541.248076 
z
" style="fill:#1f77b4;opacity:0.5;"/>
   </g>
   <g id="patch_149">
    <path clip-path="url(#p1f8669c958)" d="M 586.164972 550.8 
L 589.797464 550.8 
L 589.797464 543.158461 
L 586.164972 543.158461 
z
" style="fill:#1f77b4;opacity:0.5;"/>
   </g>
   <g id="patch_150">
    <path clip-path="url(#p1f8669c958)" d="M 589.797464 550.8 
L 593.429957 550.8 
L 593.429957 546.97923 
L 589.797464 546.97923 
z
" style="fill:#1f77b4;opacity:0.5;"/>
   </g>
   <g id="patch_151">
    <path clip-path="url(#p1f8669c958)" d="M 593.429957 550.8 
L 597.06245 550.8 
L 597.06245 545.068846 
L 593.429957 545.068846 
z
" style="fill:#1f77b4;opacity:0.5;"/>
   </g>
   <g id="patch_152">
    <path clip-path="url(#p1f8669c958)" d="M 597.06245 550.8 
L 600.694943 550.8 
L 600.694943 541.248076 
L 597.06245 541.248076 
z
" style="fill:#1f77b4;opacity:0.5;"/>
   </g>
   <g id="patch_153">
    <path clip-path="url(#p1f8669c958)" d="M 600.694943 550.8 
L 604.327436 550.8 
L 604.327436 546.97923 
L 600.694943 546.97923 
z
" style="fill:#1f77b4;opacity:0.5;"/>
   </g>
   <g id="patch_154">
    <path clip-path="url(#p1f8669c958)" d="M 604.327436 550.8 
L 607.959929 550.8 
L 607.959929 541.248076 
L 604.327436 541.248076 
z
" style="fill:#1f77b4;opacity:0.5;"/>
   </g>
   <g id="patch_155">
    <path clip-path="url(#p1f8669c958)" d="M 607.959929 550.8 
L 611.592421 550.8 
L 611.592421 545.068846 
L 607.959929 545.068846 
z
" style="fill:#1f77b4;opacity:0.5;"/>
   </g>
   <g id="patch_156">
    <path clip-path="url(#p1f8669c958)" d="M 611.592421 550.8 
L 615.224914 550.8 
L 615.224914 539.337691 
L 611.592421 539.337691 
z
" style="fill:#1f77b4;opacity:0.5;"/>
   </g>
   <g id="patch_157">
    <path clip-path="url(#p1f8669c958)" d="M 615.224914 550.8 
L 618.857407 550.8 
L 618.857407 545.068846 
L 615.224914 545.068846 
z
" style="fill:#1f77b4;opacity:0.5;"/>
   </g>
   <g id="patch_158">
    <path clip-path="url(#p1f8669c958)" d="M 618.857407 550.8 
L 622.4899 550.8 
L 622.4899 546.97923 
L 618.857407 546.97923 
z
" style="fill:#1f77b4;opacity:0.5;"/>
   </g>
   <g id="patch_159">
    <path clip-path="url(#p1f8669c958)" d="M 622.4899 550.8 
L 626.122393 550.8 
L 626.122393 548.889615 
L 622.4899 548.889615 
z
" style="fill:#1f77b4;opacity:0.5;"/>
   </g>
   <g id="patch_160">
    <path clip-path="url(#p1f8669c958)" d="M 626.122393 550.8 
L 629.754886 550.8 
L 629.754886 546.97923 
L 626.122393 546.97923 
z
" style="fill:#1f77b4;opacity:0.5;"/>
   </g>
   <g id="patch_161">
    <path clip-path="url(#p1f8669c958)" d="M 629.754886 550.8 
L 633.387379 550.8 
L 633.387379 545.068846 
L 629.754886 545.068846 
z
" style="fill:#1f77b4;opacity:0.5;"/>
   </g>
   <g id="patch_162">
    <path clip-path="url(#p1f8669c958)" d="M 633.387379 550.8 
L 637.019871 550.8 
L 637.019871 543.158461 
L 633.387379 543.158461 
z
" style="fill:#1f77b4;opacity:0.5;"/>
   </g>
   <g id="patch_163">
    <path clip-path="url(#p1f8669c958)" d="M 637.019871 550.8 
L 640.652364 550.8 
L 640.652364 548.889615 
L 637.019871 548.889615 
z
" style="fill:#1f77b4;opacity:0.5;"/>
   </g>
   <g id="patch_164">
    <path clip-path="url(#p1f8669c958)" d="M 640.652364 550.8 
L 644.284857 550.8 
L 644.284857 550.8 
L 640.652364 550.8 
z
" style="fill:#1f77b4;opacity:0.5;"/>
   </g>
   <g id="patch_165">
    <path clip-path="url(#p1f8669c958)" d="M 644.284857 550.8 
L 647.91735 550.8 
L 647.91735 546.97923 
L 644.284857 546.97923 
z
" style="fill:#1f77b4;opacity:0.5;"/>
   </g>
   <g id="patch_166">
    <path clip-path="url(#p1f8669c958)" d="M 647.91735 550.8 
L 651.549843 550.8 
L 651.549843 546.97923 
L 647.91735 546.97923 
z
" style="fill:#1f77b4;opacity:0.5;"/>
   </g>
   <g id="patch_167">
    <path clip-path="url(#p1f8669c958)" d="M 651.549843 550.8 
L 655.182336 550.8 
L 655.182336 546.97923 
L 651.549843 546.97923 
z
" style="fill:#1f77b4;opacity:0.5;"/>
   </g>
   <g id="patch_168">
    <path clip-path="url(#p1f8669c958)" d="M 655.182336 550.8 
L 658.814828 550.8 
L 658.814828 545.068846 
L 655.182336 545.068846 
z
" style="fill:#1f77b4;opacity:0.5;"/>
   </g>
   <g id="patch_169">
    <path clip-path="url(#p1f8669c958)" d="M 658.814828 550.8 
L 662.447321 550.8 
L 662.447321 548.889615 
L 658.814828 548.889615 
z
" style="fill:#1f77b4;opacity:0.5;"/>
   </g>
   <g id="patch_170">
    <path clip-path="url(#p1f8669c958)" d="M 662.447321 550.8 
L 666.079814 550.8 
L 666.079814 543.158461 
L 662.447321 543.158461 
z
" style="fill:#1f77b4;opacity:0.5;"/>
   </g>
   <g id="patch_171">
    <path clip-path="url(#p1f8669c958)" d="M 666.079814 550.8 
L 669.712307 550.8 
L 669.712307 548.889615 
L 666.079814 548.889615 
z
" style="fill:#1f77b4;opacity:0.5;"/>
   </g>
   <g id="patch_172">
    <path clip-path="url(#p1f8669c958)" d="M 669.712307 550.8 
L 673.3448 550.8 
L 673.3448 543.158461 
L 669.712307 543.158461 
z
" style="fill:#1f77b4;opacity:0.5;"/>
   </g>
   <g id="patch_173">
    <path clip-path="url(#p1f8669c958)" d="M 673.3448 550.8 
L 676.977293 550.8 
L 676.977293 550.8 
L 673.3448 550.8 
z
" style="fill:#1f77b4;opacity:0.5;"/>
   </g>
   <g id="patch_174">
    <path clip-path="url(#p1f8669c958)" d="M 676.977293 550.8 
L 680.609786 550.8 
L 680.609786 550.8 
L 676.977293 550.8 
z
" style="fill:#1f77b4;opacity:0.5;"/>
   </g>
   <g id="patch_175">
    <path clip-path="url(#p1f8669c958)" d="M 680.609786 550.8 
L 684.242278 550.8 
L 684.242278 548.889615 
L 680.609786 548.889615 
z
" style="fill:#1f77b4;opacity:0.5;"/>
   </g>
   <g id="patch_176">
    <path clip-path="url(#p1f8669c958)" d="M 684.242278 550.8 
L 687.874771 550.8 
L 687.874771 550.8 
L 684.242278 550.8 
z
" style="fill:#1f77b4;opacity:0.5;"/>
   </g>
   <g id="patch_177">
    <path clip-path="url(#p1f8669c958)" d="M 687.874771 550.8 
L 691.507264 550.8 
L 691.507264 550.8 
L 687.874771 550.8 
z
" style="fill:#1f77b4;opacity:0.5;"/>
   </g>
   <g id="patch_178">
    <path clip-path="url(#p1f8669c958)" d="M 691.507264 550.8 
L 695.139757 550.8 
L 695.139757 543.158461 
L 691.507264 543.158461 
z
" style="fill:#1f77b4;opacity:0.5;"/>
   </g>
   <g id="patch_179">
    <path clip-path="url(#p1f8669c958)" d="M 695.139757 550.8 
L 698.77225 550.8 
L 698.77225 550.8 
L 695.139757 550.8 
z
" style="fill:#1f77b4;opacity:0.5;"/>
   </g>
   <g id="patch_180">
    <path clip-path="url(#p1f8669c958)" d="M 698.77225 550.8 
L 702.404743 550.8 
L 702.404743 550.8 
L 698.77225 550.8 
z
" style="fill:#1f77b4;opacity:0.5;"/>
   </g>
   <g id="patch_181">
    <path clip-path="url(#p1f8669c958)" d="M 702.404743 550.8 
L 706.037235 550.8 
L 706.037235 548.889615 
L 702.404743 548.889615 
z
" style="fill:#1f77b4;opacity:0.5;"/>
   </g>
   <g id="patch_182">
    <path clip-path="url(#p1f8669c958)" d="M 706.037235 550.8 
L 709.669728 550.8 
L 709.669728 548.889615 
L 706.037235 548.889615 
z
" style="fill:#1f77b4;opacity:0.5;"/>
   </g>
   <g id="patch_183">
    <path clip-path="url(#p1f8669c958)" d="M 709.669728 550.8 
L 713.302221 550.8 
L 713.302221 546.97923 
L 709.669728 546.97923 
z
" style="fill:#1f77b4;opacity:0.5;"/>
   </g>
   <g id="patch_184">
    <path clip-path="url(#p1f8669c958)" d="M 713.302221 550.8 
L 716.934714 550.8 
L 716.934714 548.889615 
L 713.302221 548.889615 
z
" style="fill:#1f77b4;opacity:0.5;"/>
   </g>
   <g id="patch_185">
    <path clip-path="url(#p1f8669c958)" d="M 716.934714 550.8 
L 720.567207 550.8 
L 720.567207 548.889615 
L 716.934714 548.889615 
z
" style="fill:#1f77b4;opacity:0.5;"/>
   </g>
   <g id="patch_186">
    <path clip-path="url(#p1f8669c958)" d="M 720.567207 550.8 
L 724.1997 550.8 
L 724.1997 550.8 
L 720.567207 550.8 
z
" style="fill:#1f77b4;opacity:0.5;"/>
   </g>
   <g id="patch_187">
    <path clip-path="url(#p1f8669c958)" d="M 724.1997 550.8 
L 727.832193 550.8 
L 727.832193 548.889615 
L 724.1997 548.889615 
z
" style="fill:#1f77b4;opacity:0.5;"/>
   </g>
   <g id="patch_188">
    <path clip-path="url(#p1f8669c958)" d="M 727.832193 550.8 
L 731.464685 550.8 
L 731.464685 550.8 
L 727.832193 550.8 
z
" style="fill:#1f77b4;opacity:0.5;"/>
   </g>
   <g id="patch_189">
    <path clip-path="url(#p1f8669c958)" d="M 731.464685 550.8 
L 735.097178 550.8 
L 735.097178 548.889615 
L 731.464685 548.889615 
z
" style="fill:#1f77b4;opacity:0.5;"/>
   </g>
   <g id="patch_190">
    <path clip-path="url(#p1f8669c958)" d="M 735.097178 550.8 
L 738.729671 550.8 
L 738.729671 548.889615 
L 735.097178 548.889615 
z
" style="fill:#1f77b4;opacity:0.5;"/>
   </g>
   <g id="patch_191">
    <path clip-path="url(#p1f8669c958)" d="M 738.729671 550.8 
L 742.362164 550.8 
L 742.362164 550.8 
L 738.729671 550.8 
z
" style="fill:#1f77b4;opacity:0.5;"/>
   </g>
   <g id="patch_192">
    <path clip-path="url(#p1f8669c958)" d="M 742.362164 550.8 
L 745.994657 550.8 
L 745.994657 546.97923 
L 742.362164 546.97923 
z
" style="fill:#1f77b4;opacity:0.5;"/>
   </g>
   <g id="patch_193">
    <path clip-path="url(#p1f8669c958)" d="M 745.994657 550.8 
L 749.62715 550.8 
L 749.62715 548.889615 
L 745.994657 548.889615 
z
" style="fill:#1f77b4;opacity:0.5;"/>
   </g>
   <g id="patch_194">
    <path clip-path="url(#p1f8669c958)" d="M 749.62715 550.8 
L 753.259642 550.8 
L 753.259642 545.068846 
L 749.62715 545.068846 
z
" style="fill:#1f77b4;opacity:0.5;"/>
   </g>
   <g id="patch_195">
    <path clip-path="url(#p1f8669c958)" d="M 753.259642 550.8 
L 756.892135 550.8 
L 756.892135 550.8 
L 753.259642 550.8 
z
" style="fill:#1f77b4;opacity:0.5;"/>
   </g>
   <g id="patch_196">
    <path clip-path="url(#p1f8669c958)" d="M 756.892135 550.8 
L 760.524628 550.8 
L 760.524628 550.8 
L 756.892135 550.8 
z
" style="fill:#1f77b4;opacity:0.5;"/>
   </g>
   <g id="patch_197">
    <path clip-path="url(#p1f8669c958)" d="M 760.524628 550.8 
L 764.157121 550.8 
L 764.157121 550.8 
L 760.524628 550.8 
z
" style="fill:#1f77b4;opacity:0.5;"/>
   </g>
   <g id="patch_198">
    <path clip-path="url(#p1f8669c958)" d="M 764.157121 550.8 
L 767.789614 550.8 
L 767.789614 550.8 
L 764.157121 550.8 
z
" style="fill:#1f77b4;opacity:0.5;"/>
   </g>
   <g id="patch_199">
    <path clip-path="url(#p1f8669c958)" d="M 767.789614 550.8 
L 771.422107 550.8 
L 771.422107 548.889615 
L 767.789614 548.889615 
z
" style="fill:#1f77b4;opacity:0.5;"/>
   </g>
   <g id="patch_200">
    <path clip-path="url(#p1f8669c958)" d="M 771.422107 550.8 
L 775.0546 550.8 
L 775.0546 550.8 
L 771.422107 550.8 
z
" style="fill:#1f77b4;opacity:0.5;"/>
   </g>
   <g id="patch_201">
    <path clip-path="url(#p1f8669c958)" d="M 775.0546 550.8 
L 778.687092 550.8 
L 778.687092 550.8 
L 775.0546 550.8 
z
" style="fill:#1f77b4;opacity:0.5;"/>
   </g>
   <g id="patch_202">
    <path clip-path="url(#p1f8669c958)" d="M 778.687092 550.8 
L 782.319585 550.8 
L 782.319585 550.8 
L 778.687092 550.8 
z
" style="fill:#1f77b4;opacity:0.5;"/>
   </g>
   <g id="patch_203">
    <path clip-path="url(#p1f8669c958)" d="M 782.319585 550.8 
L 785.952078 550.8 
L 785.952078 550.8 
L 782.319585 550.8 
z
" style="fill:#1f77b4;opacity:0.5;"/>
   </g>
   <g id="patch_204">
    <path clip-path="url(#p1f8669c958)" d="M 785.952078 550.8 
L 789.584571 550.8 
L 789.584571 550.8 
L 785.952078 550.8 
z
" style="fill:#1f77b4;opacity:0.5;"/>
   </g>
   <g id="patch_205">
    <path clip-path="url(#p1f8669c958)" d="M 789.584571 550.8 
L 793.217064 550.8 
L 793.217064 550.8 
L 789.584571 550.8 
z
" style="fill:#1f77b4;opacity:0.5;"/>
   </g>
   <g id="patch_206">
    <path clip-path="url(#p1f8669c958)" d="M 793.217064 550.8 
L 796.849557 550.8 
L 796.849557 548.889615 
L 793.217064 548.889615 
z
" style="fill:#1f77b4;opacity:0.5;"/>
   </g>
   <g id="patch_207">
    <path clip-path="url(#p1f8669c958)" d="M 796.849557 550.8 
L 800.482049 550.8 
L 800.482049 550.8 
L 796.849557 550.8 
z
" style="fill:#1f77b4;opacity:0.5;"/>
   </g>
   <g id="patch_208">
    <path clip-path="url(#p1f8669c958)" d="M 800.482049 550.8 
L 804.114542 550.8 
L 804.114542 546.97923 
L 800.482049 546.97923 
z
" style="fill:#1f77b4;opacity:0.5;"/>
   </g>
   <g id="patch_209">
    <path clip-path="url(#p1f8669c958)" d="M 804.114542 550.8 
L 807.747035 550.8 
L 807.747035 548.889615 
L 804.114542 548.889615 
z
" style="fill:#1f77b4;opacity:0.5;"/>
   </g>
   <g id="patch_210">
    <path clip-path="url(#p1f8669c958)" d="M 807.747035 550.8 
L 811.379528 550.8 
L 811.379528 550.8 
L 807.747035 550.8 
z
" style="fill:#1f77b4;opacity:0.5;"/>
   </g>
   <g id="patch_211">
    <path clip-path="url(#p1f8669c958)" d="M 811.379528 550.8 
L 815.012021 550.8 
L 815.012021 548.889615 
L 811.379528 548.889615 
z
" style="fill:#1f77b4;opacity:0.5;"/>
   </g>
   <g id="patch_212">
    <path clip-path="url(#p1f8669c958)" d="M 815.012021 550.8 
L 818.644514 550.8 
L 818.644514 550.8 
L 815.012021 550.8 
z
" style="fill:#1f77b4;opacity:0.5;"/>
   </g>
   <g id="patch_213">
    <path clip-path="url(#p1f8669c958)" d="M 818.644514 550.8 
L 822.277007 550.8 
L 822.277007 550.8 
L 818.644514 550.8 
z
" style="fill:#1f77b4;opacity:0.5;"/>
   </g>
   <g id="patch_214">
    <path clip-path="url(#p1f8669c958)" d="M 822.277007 550.8 
L 825.909499 550.8 
L 825.909499 550.8 
L 822.277007 550.8 
z
" style="fill:#1f77b4;opacity:0.5;"/>
   </g>
   <g id="patch_215">
    <path clip-path="url(#p1f8669c958)" d="M 825.909499 550.8 
L 829.541992 550.8 
L 829.541992 550.8 
L 825.909499 550.8 
z
" style="fill:#1f77b4;opacity:0.5;"/>
   </g>
   <g id="patch_216">
    <path clip-path="url(#p1f8669c958)" d="M 829.541992 550.8 
L 833.174485 550.8 
L 833.174485 550.8 
L 829.541992 550.8 
z
" style="fill:#1f77b4;opacity:0.5;"/>
   </g>
   <g id="patch_217">
    <path clip-path="url(#p1f8669c958)" d="M 833.174485 550.8 
L 836.806978 550.8 
L 836.806978 550.8 
L 833.174485 550.8 
z
" style="fill:#1f77b4;opacity:0.5;"/>
   </g>
   <g id="patch_218">
    <path clip-path="url(#p1f8669c958)" d="M 836.806978 550.8 
L 840.439471 550.8 
L 840.439471 550.8 
L 836.806978 550.8 
z
" style="fill:#1f77b4;opacity:0.5;"/>
   </g>
   <g id="patch_219">
    <path clip-path="url(#p1f8669c958)" d="M 840.439471 550.8 
L 844.071964 550.8 
L 844.071964 550.8 
L 840.439471 550.8 
z
" style="fill:#1f77b4;opacity:0.5;"/>
   </g>
   <g id="patch_220">
    <path clip-path="url(#p1f8669c958)" d="M 844.071964 550.8 
L 847.704456 550.8 
L 847.704456 550.8 
L 844.071964 550.8 
z
" style="fill:#1f77b4;opacity:0.5;"/>
   </g>
   <g id="patch_221">
    <path clip-path="url(#p1f8669c958)" d="M 847.704456 550.8 
L 851.336949 550.8 
L 851.336949 548.889615 
L 847.704456 548.889615 
z
" style="fill:#1f77b4;opacity:0.5;"/>
   </g>
   <g id="patch_222">
    <path clip-path="url(#p1f8669c958)" d="M 851.336949 550.8 
L 854.969442 550.8 
L 854.969442 550.8 
L 851.336949 550.8 
z
" style="fill:#1f77b4;opacity:0.5;"/>
   </g>
   <g id="patch_223">
    <path clip-path="url(#p1f8669c958)" d="M 854.969442 550.8 
L 858.601935 550.8 
L 858.601935 550.8 
L 854.969442 550.8 
z
" style="fill:#1f77b4;opacity:0.5;"/>
   </g>
   <g id="patch_224">
    <path clip-path="url(#p1f8669c958)" d="M 858.601935 550.8 
L 862.234428 550.8 
L 862.234428 550.8 
L 858.601935 550.8 
z
" style="fill:#1f77b4;opacity:0.5;"/>
   </g>
   <g id="patch_225">
    <path clip-path="url(#p1f8669c958)" d="M 862.234428 550.8 
L 865.866921 550.8 
L 865.866921 550.8 
L 862.234428 550.8 
z
" style="fill:#1f77b4;opacity:0.5;"/>
   </g>
   <g id="patch_226">
    <path clip-path="url(#p1f8669c958)" d="M 865.866921 550.8 
L 869.499413 550.8 
L 869.499413 550.8 
L 865.866921 550.8 
z
" style="fill:#1f77b4;opacity:0.5;"/>
   </g>
   <g id="patch_227">
    <path clip-path="url(#p1f8669c958)" d="M 869.499413 550.8 
L 873.131906 550.8 
L 873.131906 550.8 
L 869.499413 550.8 
z
" style="fill:#1f77b4;opacity:0.5;"/>
   </g>
   <g id="patch_228">
    <path clip-path="url(#p1f8669c958)" d="M 873.131906 550.8 
L 876.764399 550.8 
L 876.764399 550.8 
L 873.131906 550.8 
z
" style="fill:#1f77b4;opacity:0.5;"/>
   </g>
   <g id="patch_229">
    <path clip-path="url(#p1f8669c958)" d="M 876.764399 550.8 
L 880.396892 550.8 
L 880.396892 550.8 
L 876.764399 550.8 
z
" style="fill:#1f77b4;opacity:0.5;"/>
   </g>
   <g id="patch_230">
    <path clip-path="url(#p1f8669c958)" d="M 880.396892 550.8 
L 884.029385 550.8 
L 884.029385 550.8 
L 880.396892 550.8 
z
" style="fill:#1f77b4;opacity:0.5;"/>
   </g>
   <g id="patch_231">
    <path clip-path="url(#p1f8669c958)" d="M 884.029385 550.8 
L 887.661878 550.8 
L 887.661878 550.8 
L 884.029385 550.8 
z
" style="fill:#1f77b4;opacity:0.5;"/>
   </g>
   <g id="patch_232">
    <path clip-path="url(#p1f8669c958)" d="M 887.661878 550.8 
L 891.294371 550.8 
L 891.294371 550.8 
L 887.661878 550.8 
z
" style="fill:#1f77b4;opacity:0.5;"/>
   </g>
   <g id="patch_233">
    <path clip-path="url(#p1f8669c958)" d="M 891.294371 550.8 
L 894.926863 550.8 
L 894.926863 550.8 
L 891.294371 550.8 
z
" style="fill:#1f77b4;opacity:0.5;"/>
   </g>
   <g id="patch_234">
    <path clip-path="url(#p1f8669c958)" d="M 894.926863 550.8 
L 898.559356 550.8 
L 898.559356 550.8 
L 894.926863 550.8 
z
" style="fill:#1f77b4;opacity:0.5;"/>
   </g>
   <g id="patch_235">
    <path clip-path="url(#p1f8669c958)" d="M 898.559356 550.8 
L 902.191849 550.8 
L 902.191849 550.8 
L 898.559356 550.8 
z
" style="fill:#1f77b4;opacity:0.5;"/>
   </g>
   <g id="patch_236">
    <path clip-path="url(#p1f8669c958)" d="M 902.191849 550.8 
L 905.824342 550.8 
L 905.824342 550.8 
L 902.191849 550.8 
z
" style="fill:#1f77b4;opacity:0.5;"/>
   </g>
   <g id="patch_237">
    <path clip-path="url(#p1f8669c958)" d="M 905.824342 550.8 
L 909.456835 550.8 
L 909.456835 550.8 
L 905.824342 550.8 
z
" style="fill:#1f77b4;opacity:0.5;"/>
   </g>
   <g id="patch_238">
    <path clip-path="url(#p1f8669c958)" d="M 909.456835 550.8 
L 913.089328 550.8 
L 913.089328 550.8 
L 909.456835 550.8 
z
" style="fill:#1f77b4;opacity:0.5;"/>
   </g>
   <g id="patch_239">
    <path clip-path="url(#p1f8669c958)" d="M 913.089328 550.8 
L 916.72182 550.8 
L 916.72182 550.8 
L 913.089328 550.8 
z
" style="fill:#1f77b4;opacity:0.5;"/>
   </g>
   <g id="patch_240">
    <path clip-path="url(#p1f8669c958)" d="M 916.72182 550.8 
L 920.354313 550.8 
L 920.354313 550.8 
L 916.72182 550.8 
z
" style="fill:#1f77b4;opacity:0.5;"/>
   </g>
   <g id="patch_241">
    <path clip-path="url(#p1f8669c958)" d="M 920.354313 550.8 
L 923.986806 550.8 
L 923.986806 550.8 
L 920.354313 550.8 
z
" style="fill:#1f77b4;opacity:0.5;"/>
   </g>
   <g id="patch_242">
    <path clip-path="url(#p1f8669c958)" d="M 923.986806 550.8 
L 927.619299 550.8 
L 927.619299 550.8 
L 923.986806 550.8 
z
" style="fill:#1f77b4;opacity:0.5;"/>
   </g>
   <g id="patch_243">
    <path clip-path="url(#p1f8669c958)" d="M 927.619299 550.8 
L 931.251792 550.8 
L 931.251792 550.8 
L 927.619299 550.8 
z
" style="fill:#1f77b4;opacity:0.5;"/>
   </g>
   <g id="patch_244">
    <path clip-path="url(#p1f8669c958)" d="M 931.251792 550.8 
L 934.884285 550.8 
L 934.884285 550.8 
L 931.251792 550.8 
z
" style="fill:#1f77b4;opacity:0.5;"/>
   </g>
   <g id="patch_245">
    <path clip-path="url(#p1f8669c958)" d="M 934.884285 550.8 
L 938.516778 550.8 
L 938.516778 550.8 
L 934.884285 550.8 
z
" style="fill:#1f77b4;opacity:0.5;"/>
   </g>
   <g id="patch_246">
    <path clip-path="url(#p1f8669c958)" d="M 938.516778 550.8 
L 942.14927 550.8 
L 942.14927 550.8 
L 938.516778 550.8 
z
" style="fill:#1f77b4;opacity:0.5;"/>
   </g>
   <g id="patch_247">
    <path clip-path="url(#p1f8669c958)" d="M 942.14927 550.8 
L 945.781763 550.8 
L 945.781763 550.8 
L 942.14927 550.8 
z
" style="fill:#1f77b4;opacity:0.5;"/>
   </g>
   <g id="patch_248">
    <path clip-path="url(#p1f8669c958)" d="M 945.781763 550.8 
L 949.414256 550.8 
L 949.414256 550.8 
L 945.781763 550.8 
z
" style="fill:#1f77b4;opacity:0.5;"/>
   </g>
   <g id="patch_249">
    <path clip-path="url(#p1f8669c958)" d="M 949.414256 550.8 
L 953.046749 550.8 
L 953.046749 550.8 
L 949.414256 550.8 
z
" style="fill:#1f77b4;opacity:0.5;"/>
   </g>
   <g id="patch_250">
    <path clip-path="url(#p1f8669c958)" d="M 953.046749 550.8 
L 956.679242 550.8 
L 956.679242 550.8 
L 953.046749 550.8 
z
" style="fill:#1f77b4;opacity:0.5;"/>
   </g>
   <g id="patch_251">
    <path clip-path="url(#p1f8669c958)" d="M 956.679242 550.8 
L 960.311735 550.8 
L 960.311735 550.8 
L 956.679242 550.8 
z
" style="fill:#1f77b4;opacity:0.5;"/>
   </g>
   <g id="patch_252">
    <path clip-path="url(#p1f8669c958)" d="M 960.311735 550.8 
L 963.944227 550.8 
L 963.944227 550.8 
L 960.311735 550.8 
z
" style="fill:#1f77b4;opacity:0.5;"/>
   </g>
   <g id="patch_253">
    <path clip-path="url(#p1f8669c958)" d="M 963.944227 550.8 
L 967.57672 550.8 
L 967.57672 550.8 
L 963.944227 550.8 
z
" style="fill:#1f77b4;opacity:0.5;"/>
   </g>
   <g id="patch_254">
    <path clip-path="url(#p1f8669c958)" d="M 967.57672 550.8 
L 971.209213 550.8 
L 971.209213 550.8 
L 967.57672 550.8 
z
" style="fill:#1f77b4;opacity:0.5;"/>
   </g>
   <g id="patch_255">
    <path clip-path="url(#p1f8669c958)" d="M 971.209213 550.8 
L 974.841706 550.8 
L 974.841706 550.8 
L 971.209213 550.8 
z
" style="fill:#1f77b4;opacity:0.5;"/>
   </g>
   <g id="patch_256">
    <path clip-path="url(#p1f8669c958)" d="M 974.841706 550.8 
L 978.474199 550.8 
L 978.474199 550.8 
L 974.841706 550.8 
z
" style="fill:#1f77b4;opacity:0.5;"/>
   </g>
   <g id="patch_257">
    <path clip-path="url(#p1f8669c958)" d="M 978.474199 550.8 
L 982.106692 550.8 
L 982.106692 550.8 
L 978.474199 550.8 
z
" style="fill:#1f77b4;opacity:0.5;"/>
   </g>
   <g id="patch_258">
    <path clip-path="url(#p1f8669c958)" d="M 982.106692 550.8 
L 985.739185 550.8 
L 985.739185 550.8 
L 982.106692 550.8 
z
" style="fill:#1f77b4;opacity:0.5;"/>
   </g>
   <g id="patch_259">
    <path clip-path="url(#p1f8669c958)" d="M 985.739185 550.8 
L 989.371677 550.8 
L 989.371677 550.8 
L 985.739185 550.8 
z
" style="fill:#1f77b4;opacity:0.5;"/>
   </g>
   <g id="patch_260">
    <path clip-path="url(#p1f8669c958)" d="M 989.371677 550.8 
L 993.00417 550.8 
L 993.00417 550.8 
L 989.371677 550.8 
z
" style="fill:#1f77b4;opacity:0.5;"/>
   </g>
   <g id="patch_261">
    <path clip-path="url(#p1f8669c958)" d="M 993.00417 550.8 
L 996.636663 550.8 
L 996.636663 550.8 
L 993.00417 550.8 
z
" style="fill:#1f77b4;opacity:0.5;"/>
   </g>
   <g id="patch_262">
    <path clip-path="url(#p1f8669c958)" d="M 996.636663 550.8 
L 1000.269156 550.8 
L 1000.269156 550.8 
L 996.636663 550.8 
z
" style="fill:#1f77b4;opacity:0.5;"/>
   </g>
   <g id="patch_263">
    <path clip-path="url(#p1f8669c958)" d="M 1000.269156 550.8 
L 1003.901649 550.8 
L 1003.901649 550.8 
L 1000.269156 550.8 
z
" style="fill:#1f77b4;opacity:0.5;"/>
   </g>
   <g id="patch_264">
    <path clip-path="url(#p1f8669c958)" d="M 1003.901649 550.8 
L 1007.534142 550.8 
L 1007.534142 550.8 
L 1003.901649 550.8 
z
" style="fill:#1f77b4;opacity:0.5;"/>
   </g>
   <g id="patch_265">
    <path clip-path="url(#p1f8669c958)" d="M 1007.534142 550.8 
L 1011.166634 550.8 
L 1011.166634 550.8 
L 1007.534142 550.8 
z
" style="fill:#1f77b4;opacity:0.5;"/>
   </g>
   <g id="patch_266">
    <path clip-path="url(#p1f8669c958)" d="M 1011.166634 550.8 
L 1014.799127 550.8 
L 1014.799127 550.8 
L 1011.166634 550.8 
z
" style="fill:#1f77b4;opacity:0.5;"/>
   </g>
   <g id="patch_267">
    <path clip-path="url(#p1f8669c958)" d="M 1014.799127 550.8 
L 1018.43162 550.8 
L 1018.43162 550.8 
L 1014.799127 550.8 
z
" style="fill:#1f77b4;opacity:0.5;"/>
   </g>
   <g id="patch_268">
    <path clip-path="url(#p1f8669c958)" d="M 1018.43162 550.8 
L 1022.064113 550.8 
L 1022.064113 550.8 
L 1018.43162 550.8 
z
" style="fill:#1f77b4;opacity:0.5;"/>
   </g>
   <g id="patch_269">
    <path clip-path="url(#p1f8669c958)" d="M 1022.064113 550.8 
L 1025.696606 550.8 
L 1025.696606 550.8 
L 1022.064113 550.8 
z
" style="fill:#1f77b4;opacity:0.5;"/>
   </g>
   <g id="patch_270">
    <path clip-path="url(#p1f8669c958)" d="M 1025.696606 550.8 
L 1029.329099 550.8 
L 1029.329099 550.8 
L 1025.696606 550.8 
z
" style="fill:#1f77b4;opacity:0.5;"/>
   </g>
   <g id="patch_271">
    <path clip-path="url(#p1f8669c958)" d="M 1029.329099 550.8 
L 1032.961592 550.8 
L 1032.961592 550.8 
L 1029.329099 550.8 
z
" style="fill:#1f77b4;opacity:0.5;"/>
   </g>
   <g id="patch_272">
    <path clip-path="url(#p1f8669c958)" d="M 1032.961592 550.8 
L 1036.594084 550.8 
L 1036.594084 550.8 
L 1032.961592 550.8 
z
" style="fill:#1f77b4;opacity:0.5;"/>
   </g>
   <g id="patch_273">
    <path clip-path="url(#p1f8669c958)" d="M 1036.594084 550.8 
L 1040.226577 550.8 
L 1040.226577 550.8 
L 1036.594084 550.8 
z
" style="fill:#1f77b4;opacity:0.5;"/>
   </g>
   <g id="patch_274">
    <path clip-path="url(#p1f8669c958)" d="M 1040.226577 550.8 
L 1043.85907 550.8 
L 1043.85907 550.8 
L 1040.226577 550.8 
z
" style="fill:#1f77b4;opacity:0.5;"/>
   </g>
   <g id="patch_275">
    <path clip-path="url(#p1f8669c958)" d="M 1043.85907 550.8 
L 1047.491563 550.8 
L 1047.491563 550.8 
L 1043.85907 550.8 
z
" style="fill:#1f77b4;opacity:0.5;"/>
   </g>
   <g id="patch_276">
    <path clip-path="url(#p1f8669c958)" d="M 1047.491563 550.8 
L 1051.124056 550.8 
L 1051.124056 550.8 
L 1047.491563 550.8 
z
" style="fill:#1f77b4;opacity:0.5;"/>
   </g>
   <g id="patch_277">
    <path clip-path="url(#p1f8669c958)" d="M 1051.124056 550.8 
L 1054.756549 550.8 
L 1054.756549 550.8 
L 1051.124056 550.8 
z
" style="fill:#1f77b4;opacity:0.5;"/>
   </g>
   <g id="patch_278">
    <path clip-path="url(#p1f8669c958)" d="M 1054.756549 550.8 
L 1058.389041 550.8 
L 1058.389041 550.8 
L 1054.756549 550.8 
z
" style="fill:#1f77b4;opacity:0.5;"/>
   </g>
   <g id="patch_279">
    <path clip-path="url(#p1f8669c958)" d="M 1058.389041 550.8 
L 1062.021534 550.8 
L 1062.021534 550.8 
L 1058.389041 550.8 
z
" style="fill:#1f77b4;opacity:0.5;"/>
   </g>
   <g id="patch_280">
    <path clip-path="url(#p1f8669c958)" d="M 1062.021534 550.8 
L 1065.654027 550.8 
L 1065.654027 550.8 
L 1062.021534 550.8 
z
" style="fill:#1f77b4;opacity:0.5;"/>
   </g>
   <g id="patch_281">
    <path clip-path="url(#p1f8669c958)" d="M 1065.654027 550.8 
L 1069.28652 550.8 
L 1069.28652 550.8 
L 1065.654027 550.8 
z
" style="fill:#1f77b4;opacity:0.5;"/>
   </g>
   <g id="patch_282">
    <path clip-path="url(#p1f8669c958)" d="M 1069.28652 550.8 
L 1072.919013 550.8 
L 1072.919013 550.8 
L 1069.28652 550.8 
z
" style="fill:#1f77b4;opacity:0.5;"/>
   </g>
   <g id="patch_283">
    <path clip-path="url(#p1f8669c958)" d="M 1072.919013 550.8 
L 1076.551506 550.8 
L 1076.551506 548.889615 
L 1072.919013 548.889615 
z
" style="fill:#1f77b4;opacity:0.5;"/>
   </g>
   <g id="patch_284">
    <path clip-path="url(#p1f8669c958)" d="M 1076.551506 550.8 
L 1080.183999 550.8 
L 1080.183999 550.8 
L 1076.551506 550.8 
z
" style="fill:#1f77b4;opacity:0.5;"/>
   </g>
   <g id="patch_285">
    <path clip-path="url(#p1f8669c958)" d="M 1080.183999 550.8 
L 1083.816491 550.8 
L 1083.816491 550.8 
L 1080.183999 550.8 
z
" style="fill:#1f77b4;opacity:0.5;"/>
   </g>
   <g id="patch_286">
    <path clip-path="url(#p1f8669c958)" d="M 1083.816491 550.8 
L 1087.448984 550.8 
L 1087.448984 550.8 
L 1083.816491 550.8 
z
" style="fill:#1f77b4;opacity:0.5;"/>
   </g>
   <g id="patch_287">
    <path clip-path="url(#p1f8669c958)" d="M 1087.448984 550.8 
L 1091.081477 550.8 
L 1091.081477 550.8 
L 1087.448984 550.8 
z
" style="fill:#1f77b4;opacity:0.5;"/>
   </g>
   <g id="patch_288">
    <path clip-path="url(#p1f8669c958)" d="M 1091.081477 550.8 
L 1094.71397 550.8 
L 1094.71397 550.8 
L 1091.081477 550.8 
z
" style="fill:#1f77b4;opacity:0.5;"/>
   </g>
   <g id="patch_289">
    <path clip-path="url(#p1f8669c958)" d="M 1094.71397 550.8 
L 1098.346463 550.8 
L 1098.346463 550.8 
L 1094.71397 550.8 
z
" style="fill:#1f77b4;opacity:0.5;"/>
   </g>
   <g id="patch_290">
    <path clip-path="url(#p1f8669c958)" d="M 1098.346463 550.8 
L 1101.978956 550.8 
L 1101.978956 550.8 
L 1098.346463 550.8 
z
" style="fill:#1f77b4;opacity:0.5;"/>
   </g>
   <g id="patch_291">
    <path clip-path="url(#p1f8669c958)" d="M 1101.978956 550.8 
L 1105.611448 550.8 
L 1105.611448 550.8 
L 1101.978956 550.8 
z
" style="fill:#1f77b4;opacity:0.5;"/>
   </g>
   <g id="patch_292">
    <path clip-path="url(#p1f8669c958)" d="M 1105.611448 550.8 
L 1109.243941 550.8 
L 1109.243941 550.8 
L 1105.611448 550.8 
z
" style="fill:#1f77b4;opacity:0.5;"/>
   </g>
   <g id="patch_293">
    <path clip-path="url(#p1f8669c958)" d="M 1109.243941 550.8 
L 1112.876434 550.8 
L 1112.876434 550.8 
L 1109.243941 550.8 
z
" style="fill:#1f77b4;opacity:0.5;"/>
   </g>
   <g id="patch_294">
    <path clip-path="url(#p1f8669c958)" d="M 1112.876434 550.8 
L 1116.508927 550.8 
L 1116.508927 550.8 
L 1112.876434 550.8 
z
" style="fill:#1f77b4;opacity:0.5;"/>
   </g>
   <g id="patch_295">
    <path clip-path="url(#p1f8669c958)" d="M 1116.508927 550.8 
L 1120.14142 550.8 
L 1120.14142 550.8 
L 1116.508927 550.8 
z
" style="fill:#1f77b4;opacity:0.5;"/>
   </g>
   <g id="patch_296">
    <path clip-path="url(#p1f8669c958)" d="M 1120.14142 550.8 
L 1123.773913 550.8 
L 1123.773913 550.8 
L 1120.14142 550.8 
z
" style="fill:#1f77b4;opacity:0.5;"/>
   </g>
   <g id="patch_297">
    <path clip-path="url(#p1f8669c958)" d="M 1123.773913 550.8 
L 1127.406406 550.8 
L 1127.406406 550.8 
L 1123.773913 550.8 
z
" style="fill:#1f77b4;opacity:0.5;"/>
   </g>
   <g id="patch_298">
    <path clip-path="url(#p1f8669c958)" d="M 1127.406406 550.8 
L 1131.038898 550.8 
L 1131.038898 550.8 
L 1127.406406 550.8 
z
" style="fill:#1f77b4;opacity:0.5;"/>
   </g>
   <g id="patch_299">
    <path clip-path="url(#p1f8669c958)" d="M 1131.038898 550.8 
L 1134.671391 550.8 
L 1134.671391 550.8 
L 1131.038898 550.8 
z
" style="fill:#1f77b4;opacity:0.5;"/>
   </g>
   <g id="patch_300">
    <path clip-path="url(#p1f8669c958)" d="M 1134.671391 550.8 
L 1138.303884 550.8 
L 1138.303884 550.8 
L 1134.671391 550.8 
z
" style="fill:#1f77b4;opacity:0.5;"/>
   </g>
   <g id="patch_301">
    <path clip-path="url(#p1f8669c958)" d="M 1138.303884 550.8 
L 1141.936377 550.8 
L 1141.936377 550.8 
L 1138.303884 550.8 
z
" style="fill:#1f77b4;opacity:0.5;"/>
   </g>
   <g id="patch_302">
    <path clip-path="url(#p1f8669c958)" d="M 1141.936377 550.8 
L 1145.56887 550.8 
L 1145.56887 548.889615 
L 1141.936377 548.889615 
z
" style="fill:#1f77b4;opacity:0.5;"/>
   </g>
   <g id="matplotlib.axis_1">
    <g id="xtick_1">
     <g id="text_1">
      <!-- 0.00 -->
      <g transform="translate(29.470313 565.398438)scale(0.1 -0.1)">
       <defs>
        <path d="M 31.78125 66.40625 
Q 24.171875 66.40625 20.328125 58.90625 
Q 16.5 51.421875 16.5 36.375 
Q 16.5 21.390625 20.328125 13.890625 
Q 24.171875 6.390625 31.78125 6.390625 
Q 39.453125 6.390625 43.28125 13.890625 
Q 47.125 21.390625 47.125 36.375 
Q 47.125 51.421875 43.28125 58.90625 
Q 39.453125 66.40625 31.78125 66.40625 
z
M 31.78125 74.21875 
Q 44.046875 74.21875 50.515625 64.515625 
Q 56.984375 54.828125 56.984375 36.375 
Q 56.984375 17.96875 50.515625 8.265625 
Q 44.046875 -1.421875 31.78125 -1.421875 
Q 19.53125 -1.421875 13.0625 8.265625 
Q 6.59375 17.96875 6.59375 36.375 
Q 6.59375 54.828125 13.0625 64.515625 
Q 19.53125 74.21875 31.78125 74.21875 
z
" id="DejaVuSans-48"/>
        <path d="M 10.6875 12.40625 
L 21 12.40625 
L 21 0 
L 10.6875 0 
z
" id="DejaVuSans-46"/>
       </defs>
       <use xlink:href="#DejaVuSans-48"/>
       <use x="63.623047" xlink:href="#DejaVuSans-46"/>
       <use x="95.410156" xlink:href="#DejaVuSans-48"/>
       <use x="159.033203" xlink:href="#DejaVuSans-48"/>
      </g>
     </g>
    </g>
    <g id="xtick_2">
     <g id="text_2">
      <!-- 0.02 -->
      <g transform="translate(74.110313 565.398438)scale(0.1 -0.1)">
       <defs>
        <path d="M 19.1875 8.296875 
L 53.609375 8.296875 
L 53.609375 0 
L 7.328125 0 
L 7.328125 8.296875 
Q 12.9375 14.109375 22.625 23.890625 
Q 32.328125 33.6875 34.8125 36.53125 
Q 39.546875 41.84375 41.421875 45.53125 
Q 43.3125 49.21875 43.3125 52.78125 
Q 43.3125 58.59375 39.234375 62.25 
Q 35.15625 65.921875 28.609375 65.921875 
Q 23.96875 65.921875 18.8125 64.3125 
Q 13.671875 62.703125 7.8125 59.421875 
L 7.8125 69.390625 
Q 13.765625 71.78125 18.9375 73 
Q 24.125 74.21875 28.421875 74.21875 
Q 39.75 74.21875 46.484375 68.546875 
Q 53.21875 62.890625 53.21875 53.421875 
Q 53.21875 48.921875 51.53125 44.890625 
Q 49.859375 40.875 45.40625 35.40625 
Q 44.1875 33.984375 37.640625 27.21875 
Q 31.109375 20.453125 19.1875 8.296875 
z
" id="DejaVuSans-50"/>
       </defs>
       <use xlink:href="#DejaVuSans-48"/>
       <use x="63.623047" xlink:href="#DejaVuSans-46"/>
       <use x="95.410156" xlink:href="#DejaVuSans-48"/>
       <use x="159.033203" xlink:href="#DejaVuSans-50"/>
      </g>
     </g>
    </g>
    <g id="xtick_3">
     <g id="text_3">
      <!-- 0.04 -->
      <g transform="translate(118.750313 565.398438)scale(0.1 -0.1)">
       <defs>
        <path d="M 37.796875 64.3125 
L 12.890625 25.390625 
L 37.796875 25.390625 
z
M 35.203125 72.90625 
L 47.609375 72.90625 
L 47.609375 25.390625 
L 58.015625 25.390625 
L 58.015625 17.1875 
L 47.609375 17.1875 
L 47.609375 0 
L 37.796875 0 
L 37.796875 17.1875 
L 4.890625 17.1875 
L 4.890625 26.703125 
z
" id="DejaVuSans-52"/>
       </defs>
       <use xlink:href="#DejaVuSans-48"/>
       <use x="63.623047" xlink:href="#DejaVuSans-46"/>
       <use x="95.410156" xlink:href="#DejaVuSans-48"/>
       <use x="159.033203" xlink:href="#DejaVuSans-52"/>
      </g>
     </g>
    </g>
    <g id="xtick_4">
     <g id="text_4">
      <!-- 0.06 -->
      <g transform="translate(163.390312 565.398438)scale(0.1 -0.1)">
       <defs>
        <path d="M 33.015625 40.375 
Q 26.375 40.375 22.484375 35.828125 
Q 18.609375 31.296875 18.609375 23.390625 
Q 18.609375 15.53125 22.484375 10.953125 
Q 26.375 6.390625 33.015625 6.390625 
Q 39.65625 6.390625 43.53125 10.953125 
Q 47.40625 15.53125 47.40625 23.390625 
Q 47.40625 31.296875 43.53125 35.828125 
Q 39.65625 40.375 33.015625 40.375 
z
M 52.59375 71.296875 
L 52.59375 62.3125 
Q 48.875 64.0625 45.09375 64.984375 
Q 41.3125 65.921875 37.59375 65.921875 
Q 27.828125 65.921875 22.671875 59.328125 
Q 17.53125 52.734375 16.796875 39.40625 
Q 19.671875 43.65625 24.015625 45.921875 
Q 28.375 48.1875 33.59375 48.1875 
Q 44.578125 48.1875 50.953125 41.515625 
Q 57.328125 34.859375 57.328125 23.390625 
Q 57.328125 12.15625 50.6875 5.359375 
Q 44.046875 -1.421875 33.015625 -1.421875 
Q 20.359375 -1.421875 13.671875 8.265625 
Q 6.984375 17.96875 6.984375 36.375 
Q 6.984375 53.65625 15.1875 63.9375 
Q 23.390625 74.21875 37.203125 74.21875 
Q 40.921875 74.21875 44.703125 73.484375 
Q 48.484375 72.75 52.59375 71.296875 
z
" id="DejaVuSans-54"/>
       </defs>
       <use xlink:href="#DejaVuSans-48"/>
       <use x="63.623047" xlink:href="#DejaVuSans-46"/>
       <use x="95.410156" xlink:href="#DejaVuSans-48"/>
       <use x="159.033203" xlink:href="#DejaVuSans-54"/>
      </g>
     </g>
    </g>
    <g id="xtick_5">
     <g id="text_5">
      <!-- 0.08 -->
      <g transform="translate(208.030313 565.398438)scale(0.1 -0.1)">
       <defs>
        <path d="M 31.78125 34.625 
Q 24.75 34.625 20.71875 30.859375 
Q 16.703125 27.09375 16.703125 20.515625 
Q 16.703125 13.921875 20.71875 10.15625 
Q 24.75 6.390625 31.78125 6.390625 
Q 38.8125 6.390625 42.859375 10.171875 
Q 46.921875 13.96875 46.921875 20.515625 
Q 46.921875 27.09375 42.890625 30.859375 
Q 38.875 34.625 31.78125 34.625 
z
M 21.921875 38.8125 
Q 15.578125 40.375 12.03125 44.71875 
Q 8.5 49.078125 8.5 55.328125 
Q 8.5 64.0625 14.71875 69.140625 
Q 20.953125 74.21875 31.78125 74.21875 
Q 42.671875 74.21875 48.875 69.140625 
Q 55.078125 64.0625 55.078125 55.328125 
Q 55.078125 49.078125 51.53125 44.71875 
Q 48 40.375 41.703125 38.8125 
Q 48.828125 37.15625 52.796875 32.3125 
Q 56.78125 27.484375 56.78125 20.515625 
Q 56.78125 9.90625 50.3125 4.234375 
Q 43.84375 -1.421875 31.78125 -1.421875 
Q 19.734375 -1.421875 13.25 4.234375 
Q 6.78125 9.90625 6.78125 20.515625 
Q 6.78125 27.484375 10.78125 32.3125 
Q 14.796875 37.15625 21.921875 38.8125 
z
M 18.3125 54.390625 
Q 18.3125 48.734375 21.84375 45.5625 
Q 25.390625 42.390625 31.78125 42.390625 
Q 38.140625 42.390625 41.71875 45.5625 
Q 45.3125 48.734375 45.3125 54.390625 
Q 45.3125 60.0625 41.71875 63.234375 
Q 38.140625 66.40625 31.78125 66.40625 
Q 25.390625 66.40625 21.84375 63.234375 
Q 18.3125 60.0625 18.3125 54.390625 
z
" id="DejaVuSans-56"/>
       </defs>
       <use xlink:href="#DejaVuSans-48"/>
       <use x="63.623047" xlink:href="#DejaVuSans-46"/>
       <use x="95.410156" xlink:href="#DejaVuSans-48"/>
       <use x="159.033203" xlink:href="#DejaVuSans-56"/>
      </g>
     </g>
    </g>
    <g id="xtick_6">
     <g id="text_6">
      <!-- 0.10 -->
      <g transform="translate(252.670313 565.398438)scale(0.1 -0.1)">
       <defs>
        <path d="M 12.40625 8.296875 
L 28.515625 8.296875 
L 28.515625 63.921875 
L 10.984375 60.40625 
L 10.984375 69.390625 
L 28.421875 72.90625 
L 38.28125 72.90625 
L 38.28125 8.296875 
L 54.390625 8.296875 
L 54.390625 0 
L 12.40625 0 
z
" id="DejaVuSans-49"/>
       </defs>
       <use xlink:href="#DejaVuSans-48"/>
       <use x="63.623047" xlink:href="#DejaVuSans-46"/>
       <use x="95.410156" xlink:href="#DejaVuSans-49"/>
       <use x="159.033203" xlink:href="#DejaVuSans-48"/>
      </g>
     </g>
    </g>
    <g id="xtick_7">
     <g id="text_7">
      <!-- 0.12 -->
      <g transform="translate(297.310313 565.398438)scale(0.1 -0.1)">
       <use xlink:href="#DejaVuSans-48"/>
       <use x="63.623047" xlink:href="#DejaVuSans-46"/>
       <use x="95.410156" xlink:href="#DejaVuSans-49"/>
       <use x="159.033203" xlink:href="#DejaVuSans-50"/>
      </g>
     </g>
    </g>
    <g id="xtick_8">
     <g id="text_8">
      <!-- 0.14 -->
      <g transform="translate(341.950312 565.398438)scale(0.1 -0.1)">
       <use xlink:href="#DejaVuSans-48"/>
       <use x="63.623047" xlink:href="#DejaVuSans-46"/>
       <use x="95.410156" xlink:href="#DejaVuSans-49"/>
       <use x="159.033203" xlink:href="#DejaVuSans-52"/>
      </g>
     </g>
    </g>
    <g id="xtick_9">
     <g id="text_9">
      <!-- 0.16 -->
      <g transform="translate(386.590312 565.398438)scale(0.1 -0.1)">
       <use xlink:href="#DejaVuSans-48"/>
       <use x="63.623047" xlink:href="#DejaVuSans-46"/>
       <use x="95.410156" xlink:href="#DejaVuSans-49"/>
       <use x="159.033203" xlink:href="#DejaVuSans-54"/>
      </g>
     </g>
    </g>
    <g id="xtick_10">
     <g id="text_10">
      <!-- 0.18 -->
      <g transform="translate(431.230312 565.398438)scale(0.1 -0.1)">
       <use xlink:href="#DejaVuSans-48"/>
       <use x="63.623047" xlink:href="#DejaVuSans-46"/>
       <use x="95.410156" xlink:href="#DejaVuSans-49"/>
       <use x="159.033203" xlink:href="#DejaVuSans-56"/>
      </g>
     </g>
    </g>
    <g id="xtick_11">
     <g id="text_11">
      <!-- 0.20 -->
      <g transform="translate(475.870313 565.398438)scale(0.1 -0.1)">
       <use xlink:href="#DejaVuSans-48"/>
       <use x="63.623047" xlink:href="#DejaVuSans-46"/>
       <use x="95.410156" xlink:href="#DejaVuSans-50"/>
       <use x="159.033203" xlink:href="#DejaVuSans-48"/>
      </g>
     </g>
    </g>
    <g id="xtick_12">
     <g id="text_12">
      <!-- 0.22 -->
      <g transform="translate(520.510313 565.398438)scale(0.1 -0.1)">
       <use xlink:href="#DejaVuSans-48"/>
       <use x="63.623047" xlink:href="#DejaVuSans-46"/>
       <use x="95.410156" xlink:href="#DejaVuSans-50"/>
       <use x="159.033203" xlink:href="#DejaVuSans-50"/>
      </g>
     </g>
    </g>
    <g id="xtick_13">
     <g id="text_13">
      <!-- 0.24 -->
      <g transform="translate(565.150312 565.398438)scale(0.1 -0.1)">
       <use xlink:href="#DejaVuSans-48"/>
       <use x="63.623047" xlink:href="#DejaVuSans-46"/>
       <use x="95.410156" xlink:href="#DejaVuSans-50"/>
       <use x="159.033203" xlink:href="#DejaVuSans-52"/>
      </g>
     </g>
    </g>
    <g id="xtick_14">
     <g id="text_14">
      <!-- 0.26 -->
      <g transform="translate(609.790313 565.398438)scale(0.1 -0.1)">
       <use xlink:href="#DejaVuSans-48"/>
       <use x="63.623047" xlink:href="#DejaVuSans-46"/>
       <use x="95.410156" xlink:href="#DejaVuSans-50"/>
       <use x="159.033203" xlink:href="#DejaVuSans-54"/>
      </g>
     </g>
    </g>
    <g id="xtick_15">
     <g id="text_15">
      <!-- 0.28 -->
      <g transform="translate(654.430313 565.398438)scale(0.1 -0.1)">
       <use xlink:href="#DejaVuSans-48"/>
       <use x="63.623047" xlink:href="#DejaVuSans-46"/>
       <use x="95.410156" xlink:href="#DejaVuSans-50"/>
       <use x="159.033203" xlink:href="#DejaVuSans-56"/>
      </g>
     </g>
    </g>
    <g id="xtick_16">
     <g id="text_16">
      <!-- 0.30 -->
      <g transform="translate(699.070312 565.398438)scale(0.1 -0.1)">
       <defs>
        <path d="M 40.578125 39.3125 
Q 47.65625 37.796875 51.625 33 
Q 55.609375 28.21875 55.609375 21.1875 
Q 55.609375 10.40625 48.1875 4.484375 
Q 40.765625 -1.421875 27.09375 -1.421875 
Q 22.515625 -1.421875 17.65625 -0.515625 
Q 12.796875 0.390625 7.625 2.203125 
L 7.625 11.71875 
Q 11.71875 9.328125 16.59375 8.109375 
Q 21.484375 6.890625 26.8125 6.890625 
Q 36.078125 6.890625 40.9375 10.546875 
Q 45.796875 14.203125 45.796875 21.1875 
Q 45.796875 27.640625 41.28125 31.265625 
Q 36.765625 34.90625 28.71875 34.90625 
L 20.21875 34.90625 
L 20.21875 43.015625 
L 29.109375 43.015625 
Q 36.375 43.015625 40.234375 45.921875 
Q 44.09375 48.828125 44.09375 54.296875 
Q 44.09375 59.90625 40.109375 62.90625 
Q 36.140625 65.921875 28.71875 65.921875 
Q 24.65625 65.921875 20.015625 65.03125 
Q 15.375 64.15625 9.8125 62.3125 
L 9.8125 71.09375 
Q 15.4375 72.65625 20.34375 73.4375 
Q 25.25 74.21875 29.59375 74.21875 
Q 40.828125 74.21875 47.359375 69.109375 
Q 53.90625 64.015625 53.90625 55.328125 
Q 53.90625 49.265625 50.4375 45.09375 
Q 46.96875 40.921875 40.578125 39.3125 
z
" id="DejaVuSans-51"/>
       </defs>
       <use xlink:href="#DejaVuSans-48"/>
       <use x="63.623047" xlink:href="#DejaVuSans-46"/>
       <use x="95.410156" xlink:href="#DejaVuSans-51"/>
       <use x="159.033203" xlink:href="#DejaVuSans-48"/>
      </g>
     </g>
    </g>
   </g>
   <g id="matplotlib.axis_2">
    <g id="ytick_1">
     <g id="text_17">
      <!-- 0 -->
      <g transform="translate(27.240625 554.599219)scale(0.1 -0.1)">
       <use xlink:href="#DejaVuSans-48"/>
      </g>
     </g>
    </g>
    <g id="ytick_2">
     <g id="text_18">
      <!-- 2 -->
      <g transform="translate(27.240625 473.079228)scale(0.1 -0.1)">
       <use xlink:href="#DejaVuSans-50"/>
      </g>
     </g>
    </g>
    <g id="ytick_3">
     <g id="text_19">
      <!-- 4 -->
      <g transform="translate(27.240625 391.559237)scale(0.1 -0.1)">
       <use xlink:href="#DejaVuSans-52"/>
      </g>
     </g>
    </g>
    <g id="ytick_4">
     <g id="text_20">
      <!-- 6 -->
      <g transform="translate(27.240625 310.039246)scale(0.1 -0.1)">
       <use xlink:href="#DejaVuSans-54"/>
      </g>
     </g>
    </g>
    <g id="ytick_5">
     <g id="text_21">
      <!-- 8 -->
      <g transform="translate(27.240625 228.519255)scale(0.1 -0.1)">
       <use xlink:href="#DejaVuSans-56"/>
      </g>
     </g>
    </g>
    <g id="ytick_6">
     <g id="text_22">
      <!-- 10 -->
      <g transform="translate(20.878125 146.999264)scale(0.1 -0.1)">
       <use xlink:href="#DejaVuSans-49"/>
       <use x="63.623047" xlink:href="#DejaVuSans-48"/>
      </g>
     </g>
    </g>
    <g id="ytick_7">
     <g id="text_23">
      <!-- 12 -->
      <g transform="translate(20.878125 65.479273)scale(0.1 -0.1)">
       <use xlink:href="#DejaVuSans-49"/>
       <use x="63.623047" xlink:href="#DejaVuSans-50"/>
      </g>
     </g>
    </g>
    <g id="text_24">
     <!-- Frequency -->
     <g transform="translate(14.798438 304.829687)rotate(-90)scale(0.1 -0.1)">
      <defs>
       <path d="M 9.8125 72.90625 
L 51.703125 72.90625 
L 51.703125 64.59375 
L 19.671875 64.59375 
L 19.671875 43.109375 
L 48.578125 43.109375 
L 48.578125 34.8125 
L 19.671875 34.8125 
L 19.671875 0 
L 9.8125 0 
z
" id="DejaVuSans-70"/>
       <path d="M 41.109375 46.296875 
Q 39.59375 47.171875 37.8125 47.578125 
Q 36.03125 48 33.890625 48 
Q 26.265625 48 22.1875 43.046875 
Q 18.109375 38.09375 18.109375 28.8125 
L 18.109375 0 
L 9.078125 0 
L 9.078125 54.6875 
L 18.109375 54.6875 
L 18.109375 46.1875 
Q 20.953125 51.171875 25.484375 53.578125 
Q 30.03125 56 36.53125 56 
Q 37.453125 56 38.578125 55.875 
Q 39.703125 55.765625 41.0625 55.515625 
z
" id="DejaVuSans-114"/>
       <path d="M 56.203125 29.59375 
L 56.203125 25.203125 
L 14.890625 25.203125 
Q 15.484375 15.921875 20.484375 11.0625 
Q 25.484375 6.203125 34.421875 6.203125 
Q 39.59375 6.203125 44.453125 7.46875 
Q 49.3125 8.734375 54.109375 11.28125 
L 54.109375 2.78125 
Q 49.265625 0.734375 44.1875 -0.34375 
Q 39.109375 -1.421875 33.890625 -1.421875 
Q 20.796875 -1.421875 13.15625 6.1875 
Q 5.515625 13.8125 5.515625 26.8125 
Q 5.515625 40.234375 12.765625 48.109375 
Q 20.015625 56 32.328125 56 
Q 43.359375 56 49.78125 48.890625 
Q 56.203125 41.796875 56.203125 29.59375 
z
M 47.21875 32.234375 
Q 47.125 39.59375 43.09375 43.984375 
Q 39.0625 48.390625 32.421875 48.390625 
Q 24.90625 48.390625 20.390625 44.140625 
Q 15.875 39.890625 15.1875 32.171875 
z
" id="DejaVuSans-101"/>
       <path d="M 14.796875 27.296875 
Q 14.796875 17.390625 18.875 11.75 
Q 22.953125 6.109375 30.078125 6.109375 
Q 37.203125 6.109375 41.296875 11.75 
Q 45.40625 17.390625 45.40625 27.296875 
Q 45.40625 37.203125 41.296875 42.84375 
Q 37.203125 48.484375 30.078125 48.484375 
Q 22.953125 48.484375 18.875 42.84375 
Q 14.796875 37.203125 14.796875 27.296875 
z
M 45.40625 8.203125 
Q 42.578125 3.328125 38.25 0.953125 
Q 33.9375 -1.421875 27.875 -1.421875 
Q 17.96875 -1.421875 11.734375 6.484375 
Q 5.515625 14.40625 5.515625 27.296875 
Q 5.515625 40.1875 11.734375 48.09375 
Q 17.96875 56 27.875 56 
Q 33.9375 56 38.25 53.625 
Q 42.578125 51.265625 45.40625 46.390625 
L 45.40625 54.6875 
L 54.390625 54.6875 
L 54.390625 -20.796875 
L 45.40625 -20.796875 
z
" id="DejaVuSans-113"/>
       <path d="M 8.5 21.578125 
L 8.5 54.6875 
L 17.484375 54.6875 
L 17.484375 21.921875 
Q 17.484375 14.15625 20.5 10.265625 
Q 23.53125 6.390625 29.59375 6.390625 
Q 36.859375 6.390625 41.078125 11.03125 
Q 45.3125 15.671875 45.3125 23.6875 
L 45.3125 54.6875 
L 54.296875 54.6875 
L 54.296875 0 
L 45.3125 0 
L 45.3125 8.40625 
Q 42.046875 3.421875 37.71875 1 
Q 33.40625 -1.421875 27.6875 -1.421875 
Q 18.265625 -1.421875 13.375 4.4375 
Q 8.5 10.296875 8.5 21.578125 
z
M 31.109375 56 
z
" id="DejaVuSans-117"/>
       <path d="M 54.890625 33.015625 
L 54.890625 0 
L 45.90625 0 
L 45.90625 32.71875 
Q 45.90625 40.484375 42.875 44.328125 
Q 39.84375 48.1875 33.796875 48.1875 
Q 26.515625 48.1875 22.3125 43.546875 
Q 18.109375 38.921875 18.109375 30.90625 
L 18.109375 0 
L 9.078125 0 
L 9.078125 54.6875 
L 18.109375 54.6875 
L 18.109375 46.1875 
Q 21.34375 51.125 25.703125 53.5625 
Q 30.078125 56 35.796875 56 
Q 45.21875 56 50.046875 50.171875 
Q 54.890625 44.34375 54.890625 33.015625 
z
" id="DejaVuSans-110"/>
       <path d="M 48.78125 52.59375 
L 48.78125 44.1875 
Q 44.96875 46.296875 41.140625 47.34375 
Q 37.3125 48.390625 33.40625 48.390625 
Q 24.65625 48.390625 19.8125 42.84375 
Q 14.984375 37.3125 14.984375 27.296875 
Q 14.984375 17.28125 19.8125 11.734375 
Q 24.65625 6.203125 33.40625 6.203125 
Q 37.3125 6.203125 41.140625 7.25 
Q 44.96875 8.296875 48.78125 10.40625 
L 48.78125 2.09375 
Q 45.015625 0.34375 40.984375 -0.53125 
Q 36.96875 -1.421875 32.421875 -1.421875 
Q 20.0625 -1.421875 12.78125 6.34375 
Q 5.515625 14.109375 5.515625 27.296875 
Q 5.515625 40.671875 12.859375 48.328125 
Q 20.21875 56 33.015625 56 
Q 37.15625 56 41.109375 55.140625 
Q 45.0625 54.296875 48.78125 52.59375 
z
" id="DejaVuSans-99"/>
       <path d="M 32.171875 -5.078125 
Q 28.375 -14.84375 24.75 -17.8125 
Q 21.140625 -20.796875 15.09375 -20.796875 
L 7.90625 -20.796875 
L 7.90625 -13.28125 
L 13.1875 -13.28125 
Q 16.890625 -13.28125 18.9375 -11.515625 
Q 21 -9.765625 23.484375 -3.21875 
L 25.09375 0.875 
L 2.984375 54.6875 
L 12.5 54.6875 
L 29.59375 11.921875 
L 46.6875 54.6875 
L 56.203125 54.6875 
z
" id="DejaVuSans-121"/>
      </defs>
      <use xlink:href="#DejaVuSans-70"/>
      <use x="50.269531" xlink:href="#DejaVuSans-114"/>
      <use x="89.132812" xlink:href="#DejaVuSans-101"/>
      <use x="150.65625" xlink:href="#DejaVuSans-113"/>
      <use x="214.132812" xlink:href="#DejaVuSans-117"/>
      <use x="277.511719" xlink:href="#DejaVuSans-101"/>
      <use x="339.035156" xlink:href="#DejaVuSans-110"/>
      <use x="402.414062" xlink:href="#DejaVuSans-99"/>
      <use x="457.394531" xlink:href="#DejaVuSans-121"/>
     </g>
    </g>
   </g>
   <g id="line2d_1">
    <path clip-path="url(#p1f8669c958)" d="M 101.795084 550.8 
L 101.795084 463.824 
" style="fill:none;stroke:#1f77b4;stroke-dasharray:1.5,2.475;stroke-dashoffset:0;stroke-opacity:0.6;stroke-width:1.5;"/>
   </g>
   <g id="line2d_2">
    <path clip-path="url(#p1f8669c958)" d="M 163.319268 550.8 
L 163.319268 409.464 
" style="fill:none;stroke:#1f77b4;stroke-dasharray:1.5,2.475;stroke-dashoffset:0;stroke-opacity:0.8;stroke-width:1.5;"/>
   </g>
   <g id="line2d_3">
    <path clip-path="url(#p1f8669c958)" d="M 213.962926 550.8 
L 213.962926 355.104 
" style="fill:none;stroke:#1f77b4;stroke-dasharray:1.5,2.475;stroke-dashoffset:0;stroke-width:1.5;"/>
   </g>
   <g id="line2d_4">
    <path clip-path="url(#p1f8669c958)" d="M 283.619995 550.8 
L 283.619995 300.744 
" style="fill:none;stroke:#1f77b4;stroke-dasharray:1.5,2.475;stroke-dashoffset:0;stroke-opacity:0.8;stroke-width:1.5;"/>
   </g>
   <g id="line2d_5">
    <path clip-path="url(#p1f8669c958)" d="M 430.560485 550.8 
L 430.560485 246.384 
" style="fill:none;stroke:#1f77b4;stroke-dasharray:1.5,2.475;stroke-dashoffset:0;stroke-opacity:0.6;stroke-width:1.5;"/>
   </g>
  </g>
 </g>
 <defs>
  <clipPath id="p1f8669c958">
   <rect height="543.6" width="669.6" x="40.603125" y="7.2"/>
  </clipPath>
 </defs>
</svg>
